<svg xmlns="http://www.w3.org/2000/svg" xmlns:xlink="http://www.w3.org/1999/xlink" width="162" height="60" viewBox="0 0 162 60">
    <defs>
        <path id="b" d="M6.25 20A3.753 3.753 0 0 1 10 16.25l3.75-.001V20A3.754 3.754 0 0 1 10 23.75 3.754 3.754 0 0 1 6.25 20zM20 6.25A3.754 3.754 0 0 1 23.75 10 3.754 3.754 0 0 1 20 13.75h-3.75V10A3.754 3.754 0 0 1 20 6.25zM27.5 0C28.875 0 30 1.125 30 2.5v25c0 1.375-1.125 2.5-2.5 2.5h-25A2.508 2.508 0 0 1 0 27.5v-25C0 1.125 1.125 0 2.5 0h25zM20 16.25A6.257 6.257 0 0 0 26.25 10 6.258 6.258 0 0 0 20 3.75 6.257 6.257 0 0 0 13.75 10v3.75H10A6.257 6.257 0 0 0 3.75 20 6.258 6.258 0 0 0 10 26.25 6.257 6.257 0 0 0 16.25 20v-3.75H20z"/>
        <filter id="a" width="276.7%" height="276.7%" x="-88.3%" y="-61.7%" filterUnits="objectBoundingBox">
            <feOffset dy="8" in="SourceAlpha" result="shadowOffsetOuter1"/>
            <feGaussianBlur in="shadowOffsetOuter1" result="shadowBlurOuter1" stdDeviation="7.5"/>
            <feColorMatrix in="shadowBlurOuter1" values="0 0 0 0 0.137254902 0 0 0 0 0.105882353 0 0 0 0 0.458823529 0 0 0 0.1 0"/>
        </filter>
    </defs>
    <g fill="none" fill-rule="evenodd">
        <path fill="#71828A" d="M64.282 11.108c.933 0 1.673.27 2.219.812.546.541.819 1.344.819 2.408v4.27h-1.344v-4.116c0-.719-.166-1.26-.497-1.624-.331-.364-.805-.546-1.421-.546-.681 0-1.223.212-1.624.637-.401.425-.602 1.034-.602 1.827v3.822h-1.344v-4.116c0-.719-.166-1.26-.497-1.624-.331-.364-.805-.546-1.421-.546-.681 0-1.223.212-1.624.637-.401.425-.602 1.034-.602 1.827v3.822H55v-7.42h1.288v1.106c.27-.383.625-.674 1.064-.875.439-.2.938-.301 1.498-.301.579 0 1.092.117 1.54.35.448.233.793.574 1.036 1.022.28-.43.67-.765 1.169-1.008.5-.243 1.062-.364 1.687-.364zm5.516.07h1.344v7.42h-1.344v-7.42zm.672-1.428a.896.896 0 0 1-.651-.252.827.827 0 0 1-.259-.616.85.85 0 0 1 .259-.623A.883.883 0 0 1 70.47 8a.91.91 0 0 1 .651.245.804.804 0 0 1 .259.609.883.883 0 0 1-.91.896zm7.196 1.358c.943 0 1.692.273 2.247.819.555.546.833 1.346.833 2.401v4.27h-1.344v-4.116c0-.719-.173-1.26-.518-1.624-.345-.364-.84-.546-1.484-.546-.728 0-1.302.212-1.722.637-.42.425-.63 1.034-.63 1.827v3.822h-1.344v-7.42h1.288v1.12c.27-.383.637-.677 1.099-.882.462-.205.987-.308 1.575-.308zm5.572.07h1.344v7.42h-1.344v-7.42zm.672-1.428a.896.896 0 0 1-.651-.252.827.827 0 0 1-.259-.616.85.85 0 0 1 .259-.623A.883.883 0 0 1 83.91 8a.91.91 0 0 1 .651.245.804.804 0 0 1 .259.609.883.883 0 0 1-.91.896zm12.516 1.358c.933 0 1.673.27 2.219.812.546.541.819 1.344.819 2.408v4.27H98.12v-4.116c0-.719-.166-1.26-.497-1.624-.331-.364-.805-.546-1.421-.546-.681 0-1.223.212-1.624.637-.401.425-.602 1.034-.602 1.827v3.822h-1.344v-4.116c0-.719-.166-1.26-.497-1.624-.331-.364-.805-.546-1.421-.546-.681 0-1.223.212-1.624.637-.401.425-.602 1.034-.602 1.827v3.822h-1.344v-7.42h1.288v1.106c.27-.383.625-.674 1.064-.875.439-.2.938-.301 1.498-.301.579 0 1.092.117 1.54.35.448.233.793.574 1.036 1.022.28-.43.67-.765 1.169-1.008.5-.243 1.062-.364 1.687-.364zm8.218 0c1.027 0 1.813.252 2.359.756s.819 1.255.819 2.254v4.48h-1.274v-.98a2.124 2.124 0 0 1-.959.791c-.415.182-.908.273-1.477.273-.83 0-1.496-.2-1.995-.602-.5-.401-.749-.929-.749-1.582s.238-1.178.714-1.575 1.232-.595 2.268-.595h2.128v-.266c0-.579-.168-1.022-.504-1.33-.336-.308-.83-.462-1.484-.462-.439 0-.868.072-1.288.217-.42.145-.775.338-1.064.581l-.56-1.008c.383-.308.84-.544 1.372-.707a5.74 5.74 0 0 1 1.694-.245zm-.308 6.538c.513 0 .957-.114 1.33-.343.373-.229.644-.553.812-.973v-1.036h-2.072c-1.139 0-1.708.383-1.708 1.148 0 .373.145.667.434.882.29.215.69.322 1.204.322zm5.978-9.436h1.344v10.388h-1.344V8.21z"/>
        <path fill="#1D262C" d="M60.7 36.48c-1.107 0-2.177-.15-3.21-.45-1.033-.3-1.863-.69-2.49-1.17l1.1-2.44c.6.44 1.313.793 2.14 1.06.827.267 1.653.4 2.48.4.92 0 1.6-.137 2.04-.41.44-.273.66-.637.66-1.09 0-.333-.13-.61-.39-.83-.26-.22-.593-.397-1-.53-.407-.133-.957-.28-1.65-.44-1.067-.253-1.94-.507-2.62-.76a4.257 4.257 0 0 1-1.75-1.22c-.487-.56-.73-1.307-.73-2.24 0-.813.22-1.55.66-2.21.44-.66 1.103-1.183 1.99-1.57S59.9 22 61.18 22c.893 0 1.767.107 2.62.32.853.213 1.6.52 2.24.92l-1 2.46c-1.293-.733-2.587-1.1-3.88-1.1-.907 0-1.577.147-2.01.44-.433.293-.65.68-.65 1.16 0 .48.25.837.75 1.07.5.233 1.263.463 2.29.69 1.067.253 1.94.507 2.62.76.68.253 1.263.653 1.75 1.2.487.547.73 1.287.73 2.22 0 .8-.223 1.53-.67 2.19-.447.66-1.117 1.183-2.01 1.57-.893.387-1.98.58-3.26.58zm12.28-11.16c1.667 0 2.947.397 3.84 1.19.893.793 1.34 1.99 1.34 3.59v6.14h-2.92V34.9c-.587 1-1.68 1.5-3.28 1.5-.827 0-1.543-.14-2.15-.42-.607-.28-1.07-.667-1.39-1.16a3.02 3.02 0 0 1-.48-1.68c0-1 .377-1.787 1.13-2.36.753-.573 1.917-.86 3.49-.86h2.48c0-.68-.207-1.203-.62-1.57-.413-.367-1.033-.55-1.86-.55a5.43 5.43 0 0 0-1.69.27 4.471 4.471 0 0 0-1.41.73l-1.12-2.18c.587-.413 1.29-.733 2.11-.96a9.452 9.452 0 0 1 2.53-.34zm-.24 8.98c.533 0 1.007-.123 1.42-.37.413-.247.707-.61.88-1.09v-1.1H72.9c-1.28 0-1.92.42-1.92 1.26 0 .4.157.717.47.95.313.233.743.35 1.29.35zm12.58-8.98c1.667 0 2.947.397 3.84 1.19.893.793 1.34 1.99 1.34 3.59v6.14h-2.92V34.9c-.587 1-1.68 1.5-3.28 1.5-.827 0-1.543-.14-2.15-.42-.607-.28-1.07-.667-1.39-1.16a3.02 3.02 0 0 1-.48-1.68c0-1 .377-1.787 1.13-2.36.753-.573 1.917-.86 3.49-.86h2.48c0-.68-.207-1.203-.62-1.57-.413-.367-1.033-.55-1.86-.55a5.43 5.43 0 0 0-1.69.27 4.471 4.471 0 0 0-1.41.73l-1.12-2.18c.587-.413 1.29-.733 2.11-.96a9.452 9.452 0 0 1 2.53-.34zm-.24 8.98c.533 0 1.007-.123 1.42-.37.413-.247.707-.61.88-1.09v-1.1h-2.14c-1.28 0-1.92.42-1.92 1.26 0 .4.157.717.47.95.313.233.743.35 1.29.35zm13.06 2.18c-1.107 0-2.177-.15-3.21-.45-1.033-.3-1.863-.69-2.49-1.17l1.1-2.44c.6.44 1.313.793 2.14 1.06.827.267 1.653.4 2.48.4.92 0 1.6-.137 2.04-.41.44-.273.66-.637.66-1.09 0-.333-.13-.61-.39-.83-.26-.22-.593-.397-1-.53-.407-.133-.957-.28-1.65-.44-1.067-.253-1.94-.507-2.62-.76a4.257 4.257 0 0 1-1.75-1.22c-.487-.56-.73-1.307-.73-2.24 0-.813.22-1.55.66-2.21.44-.66 1.103-1.183 1.99-1.57s1.97-.58 3.25-.58c.893 0 1.767.107 2.62.32.853.213 1.6.52 2.24.92l-1 2.46c-1.293-.733-2.587-1.1-3.88-1.1-.907 0-1.577.147-2.01.44-.433.293-.65.68-.65 1.16 0 .48.25.837.75 1.07.5.233 1.263.463 2.29.69 1.067.253 1.94.507 2.62.76.68.253 1.263.653 1.75 1.2.487.547.73 1.287.73 2.22 0 .8-.223 1.53-.67 2.19-.447.66-1.117 1.183-2.01 1.57-.893.387-1.98.58-3.26.58zm19.88-14.24c1.24 0 2.317.207 3.23.62.913.413 1.617 1 2.11 1.76.493.76.74 1.66.74 2.7 0 1.027-.247 1.923-.74 2.69-.493.767-1.197 1.353-2.11 1.76-.913.407-1.99.61-3.23.61h-2.82v3.86h-3.24v-14h6.06zm-.18 7.5c.973 0 1.713-.21 2.22-.63.507-.42.76-1.017.76-1.79 0-.787-.253-1.39-.76-1.81-.507-.42-1.247-.63-2.22-.63h-2.64v4.86h2.64zm12.88-4.42c1.667 0 2.947.397 3.84 1.19.893.793 1.34 1.99 1.34 3.59v6.14h-2.92V34.9c-.587 1-1.68 1.5-3.28 1.5-.827 0-1.543-.14-2.15-.42-.607-.28-1.07-.667-1.39-1.16a3.02 3.02 0 0 1-.48-1.68c0-1 .377-1.787 1.13-2.36.753-.573 1.917-.86 3.49-.86h2.48c0-.68-.207-1.203-.62-1.57-.413-.367-1.033-.55-1.86-.55a5.43 5.43 0 0 0-1.69.27 4.471 4.471 0 0 0-1.41.73l-1.12-2.18c.587-.413 1.29-.733 2.11-.96a9.452 9.452 0 0 1 2.53-.34zm-.24 8.98c.533 0 1.007-.123 1.42-.37.413-.247.707-.61.88-1.09v-1.1h-2.14c-1.28 0-1.92.42-1.92 1.26 0 .4.157.717.47.95.313.233.743.35 1.29.35zm12.58-8.98c1.667 0 2.947.397 3.84 1.19.893.793 1.34 1.99 1.34 3.59v6.14h-2.92V34.9c-.587 1-1.68 1.5-3.28 1.5-.827 0-1.543-.14-2.15-.42-.607-.28-1.07-.667-1.39-1.16a3.02 3.02 0 0 1-.48-1.68c0-1 .377-1.787 1.13-2.36.753-.573 1.917-.86 3.49-.86h2.48c0-.68-.207-1.203-.62-1.57-.413-.367-1.033-.55-1.86-.55a5.43 5.43 0 0 0-1.69.27 4.471 4.471 0 0 0-1.41.73l-1.12-2.18c.587-.413 1.29-.733 2.11-.96a9.452 9.452 0 0 1 2.53-.34zm-.24 8.98c.533 0 1.007-.123 1.42-.37.413-.247.707-.61.88-1.09v-1.1h-2.14c-1.28 0-1.92.42-1.92 1.26 0 .4.157.717.47.95.313.233.743.35 1.29.35zm13.06 2.18c-1.107 0-2.177-.15-3.21-.45-1.033-.3-1.863-.69-2.49-1.17l1.1-2.44c.6.44 1.313.793 2.14 1.06.827.267 1.653.4 2.48.4.92 0 1.6-.137 2.04-.41.44-.273.66-.637.66-1.09 0-.333-.13-.61-.39-.83-.26-.22-.593-.397-1-.53-.407-.133-.957-.28-1.65-.44-1.067-.253-1.94-.507-2.62-.76a4.257 4.257 0 0 1-1.75-1.22c-.487-.56-.73-1.307-.73-2.24 0-.813.22-1.55.66-2.21.44-.66 1.103-1.183 1.99-1.57s1.97-.58 3.25-.58c.893 0 1.767.107 2.62.32.853.213 1.6.52 2.24.92l-1 2.46c-1.293-.733-2.587-1.1-3.88-1.1-.907 0-1.577.147-2.01.44-.433.293-.65.68-.65 1.16 0 .48.25.837.75 1.07.5.233 1.263.463 2.29.69 1.067.253 1.94.507 2.62.76.68.253 1.263.653 1.75 1.2.487.547.73 1.287.73 2.22 0 .8-.223 1.53-.67 2.19-.447.66-1.117 1.183-2.01 1.57-.893.387-1.98.58-3.26.58z"/>
        <g transform="translate(15 7)">
            <use fill="#000" filter="url(#a)" xlink:href="#b"/>
            <use fill="#0074E4" xlink:href="#b"/>
        </g>
    </g>
</svg>
