<svg xmlns="http://www.w3.org/2000/svg" width="1440" height="801" viewBox="0 0 1440 801">
    <defs>
        <linearGradient id="a" x1="50%" x2="50%" y1="0%" y2="87.097%">
            <stop offset="0%" stop-color="#077DFC"/>
            <stop offset="100%" stop-color="#0772E6"/>
        </linearGradient>
    </defs>
    <path fill="url(#a)" fill-rule="nonzero" d="M1441.457 446.445c12.82.775 22.98 11.419 22.98 24.435v5.74c0-13.52 10.96-24.48 24.48-24.48h.021c13.52 0 24.48 10.96 24.48 24.48v-5.74c0-13.52 10.96-24.48 24.48-24.48h.022c13.52 0 24.48 10.96 24.48 24.48v212.204c0 13.52-10.96 24.48-24.48 24.48h-.022c-13.52 0-24.48-10.96-24.48-24.48v-88.589c0-13.52-10.96-24.48-24.48-24.48h-.022c-13.52 0-24.48 10.96-24.48 24.48v2.49c0 13.52-10.96 24.48-24.48 24.48h-.021c-13.52 0-24.48-10.96-24.48-24.48v-29.858c0-13.52-10.96-24.48-24.48-24.48h-.022c-13.52 0-24.48 10.96-24.48 24.48v115.957c0 13.52-10.96 24.48-24.48 24.48h-.022c-13.52 0-24.48-10.96-24.48-24.48v-94.329c0-13.52-10.96-24.48-24.48-24.48h-.022c-13.52 0-24.48 10.96-24.48 24.48v54.15c0 13.52-10.96 24.48-24.48 24.48h-.022c-13.52 0-24.48-10.96-24.48-24.48v-10.893c0-13.52-10.96-24.48-24.48-24.48h-.022c-13.52 0-24.48 10.96-24.48 24.48v88.38c0 13.52-10.96 24.48-24.48 24.48h-.021c-13.52 0-24.48-10.96-24.48-24.48V588.756c0-13.52-10.96-24.48-24.48-24.48h-.022c-13.52 0-24.48 10.96-24.48 24.48v8.23c0 13.52-10.96 24.48-24.48 24.48h-.022c-13.52 0-24.48-10.96-24.48-24.48v-23.687c0-13.52-10.96-24.48-24.48-24.48h-.022c-13.52 0-24.48 10.96-24.48 24.48v109.786c0 13.52-10.96 24.48-24.48 24.48h-.022c-13.52 0-24.48-10.96-24.48-24.48v-102.98c0-13.52-10.96-24.48-24.48-24.48h-.021c-13.52 0-24.48 10.96-24.48 24.48v62.8c0 13.52-10.96 24.48-24.48 24.48h-.022c-13.52 0-24.48-10.96-24.48-24.48v-75.777c0-13.52-10.96-24.48-24.48-24.48h-.022c-13.52 0-24.48 10.96-24.48 24.48v41.338c0 13.52-10.96 24.48-24.48 24.48h-.022c-13.52 0-24.48-10.96-24.48-24.48v1.919c0-13.52-10.96-24.48-24.48-24.48h-.022c-13.52 0-24.48 10.96-24.48 24.48v72.7c0 13.52-10.96 24.48-24.48 24.48h-.022c-13.52 0-24.48-10.96-24.48-24.48V545.498c0-13.52-10.96-24.48-24.48-24.48h-.021c-13.52 0-24.48 10.96-24.48 24.48v80.187c0 13.52-10.96 24.48-24.48 24.48h-.022c-13.52 0-24.48-10.96-24.48-24.48v-58.558c0-13.52-10.96-24.48-24.48-24.48h-.022c-13.52 0-24.48 10.96-24.48 24.48v15.51c0 13.519-10.96 24.48-24.48 24.48h-.022c-13.52 0-24.48-10.961-24.48-24.48v-37.139c0-13.52-10.96-24.48-24.48-24.48h-.022c-13.52 0-24.48 10.96-24.48 24.48v166.285c0 13.52-10.96 24.48-24.48 24.48h-.021c-13.52 0-24.48-10.96-24.48-24.48v-101.4c0-13.52-10.96-24.48-24.48-24.48h-.022c-13.52 0-24.48 10.96-24.48 24.48v18.172c0 13.52-10.96 24.48-24.48 24.48h-.022c-13.52 0-24.48-10.96-24.48-24.48v-83.057c0-13.52-10.96-24.48-24.48-24.48h-.022c-13.52 0-24.48 10.96-24.48 24.48v60.098c0 13.52-10.96 24.48-24.48 24.48h-.022c-13.52 0-24.48-10.96-24.48-24.48v-16.84c0-13.52-10.96-24.48-24.48-24.48h-.022c-13.52 0-24.48 10.96-24.48 24.48v94.328c0 13.52-10.96 24.48-24.48 24.48h-.021c-13.52 0-24.48-10.96-24.48-24.48V567.127c0-13.52-10.96-24.48-24.48-24.48h-.022c-13.52 0-24.48 10.96-24.48 24.48v29.859c0 13.52-10.96 24.48-24.48 24.48h-.022c-13.52 0-24.48-10.96-24.48-24.48V470.88c0-13.52 10.96-24.48 24.48-24.48h.022c13.52 0 24.48 10.96 24.48 24.48 0-5.585 1.87-10.733 5.018-14.852V-108l1441.457 2.112v552.333zM362.335 753.483h.021c13.52 0 24.48 10.96 24.48 24.48v14.178c0 13.52-10.96 24.48-24.48 24.48h-.021c-13.52 0-24.48-10.96-24.48-24.48v-14.178c0-13.52 10.96-24.48 24.48-24.48zm489.818-68.879h.022c13.52 0 24.48 10.96 24.48 24.48v45.748c0 13.52-10.96 24.48-24.48 24.48h-.022c-13.52 0-24.48-10.96-24.48-24.48v-45.748c0-13.52 10.96-24.48 24.48-24.48zm0 111.927h.022c13.52 0 24.48 10.96 24.48 24.48v11.309c0 13.52-10.96 24.48-24.48 24.48h-.022c-13.52 0-24.48-10.96-24.48-24.48v-11.309c0-13.52 10.96-24.48 24.48-24.48zm587.782-121.846h.021c13.52 0 24.48 10.96 24.48 24.48v11.309c0 13.52-10.96 24.48-24.48 24.48h-.021c-13.52 0-24.48-10.96-24.48-24.48v-11.309c0-13.52 10.96-24.48 24.48-24.48z" transform="translate(0 -56)"/>
</svg>
