<svg xmlns="http://www.w3.org/2000/svg" width="19" height="18" viewBox="0 0 19 18">
    <g fill="none" fill-rule="evenodd" stroke="#ACACBF" stroke-linecap="round" stroke-linejoin="round" stroke-width="1.512" transform="translate(1.487 .893)">
        <circle cx="8.087" cy="8.087" r="2.206"/>
        <path d="M13.527 10.293c-.2.453-.104.983.243 1.338l.044.044a1.47 1.47 0 1 1-2.08 2.08l-.045-.044a1.213 1.213 0 0 0-1.338-.242c-.444.19-.733.626-.735 1.11v.125a1.47 1.47 0 0 1-2.94 0v-.066a1.213 1.213 0 0 0-.795-1.11 1.213 1.213 0 0 0-1.338.242l-.044.044a1.47 1.47 0 1 1-2.08-2.08l.044-.045c.347-.354.443-.884.242-1.338a1.213 1.213 0 0 0-1.11-.735H1.47a1.47 1.47 0 0 1 0-2.94h.067a1.213 1.213 0 0 0 1.11-.795c.2-.453.104-.983-.243-1.338L2.36 4.5a1.47 1.47 0 1 1 2.08-2.08l.045.044c.354.347.884.443 1.338.242h.058c.445-.19.734-.626.736-1.11V1.47a1.47 1.47 0 0 1 2.94 0v.067c.002.483.291.92.736 1.11.453.2.983.104 1.338-.243l.044-.044a1.47 1.47 0 1 1 2.08 2.08l-.044.045a1.213 1.213 0 0 0-.242 1.338v.058c.19.445.626.734 1.11.736h.125a1.47 1.47 0 0 1 0 2.94h-.066c-.484.002-.92.291-1.11.736z"/>
    </g>
</svg>
