<svg xmlns="http://www.w3.org/2000/svg" width="27" height="27" viewBox="0 0 27 27">
    <defs>
        <linearGradient id="a" x1="0%" y1="50%" y2="50%">
            <stop offset="0%" stop-color="#00BDC7"/>
            <stop offset="100%" stop-color="#00FFE1"/>
        </linearGradient>
        <linearGradient id="b" x1="0%" y1="50%" y2="50%">
            <stop offset="0%" stop-color="#00D4A9"/>
            <stop offset="52.5%" stop-color="#00F2C2"/>
            <stop offset="100%" stop-color="#00FFB3"/>
        </linearGradient>
    </defs>
    <g fill="none" fill-rule="evenodd">
        <path fill="url(#a)" d="M24.938 11.81L18.762 1.111A2.215 2.215 0 0 0 16.849 0H4.497c-.414 0-.802.13-1.163.336v.026c.284.18.542.44.723.75l3.101 5.375c.285-.13.62-.207.93-.207h5.118c.8 0 1.524.413 1.912 1.111l2.558 4.42a2.269 2.269 0 0 1 0 2.222l-2.558 4.419a2.248 2.248 0 0 1-1.912 1.11H8.115a2.23 2.23 0 0 1-.93-.206l-3.102 5.375c-.18.31-.44.569-.723.75v.026c.335.206.749.336 1.162.336h12.38c.8 0 1.524-.414 1.911-1.112l6.177-10.698a2.27 2.27 0 0 0-.052-2.223z" transform="translate(.8 .2)"/>
        <path fill="url(#b)" d="M10.234 11.81L7.158 6.487l-3.1-5.376c-.182-.31-.44-.568-.724-.75h-.026c-.31.182-.569.44-.75.776l-2.3 4.006a1.844 1.844 0 0 0 0 1.86l2.791 4.833c.207.336.285.724.285 1.111 0 .388-.104.775-.285 1.111L.26 18.865a1.844 1.844 0 0 0 0 1.86l2.325 4.032c.181.31.44.595.75.776h.026c.31-.181.542-.44.723-.75l3.101-5.375 3.076-5.324c.387-.75.387-1.576-.026-2.274z" transform="translate(.8 .2)"/>
    </g>
</svg>
