<svg xmlns="http://www.w3.org/2000/svg" width="163" height="87" viewBox="0 0 163 87">
    <defs>
        <linearGradient id="a" x1="49.997%" x2="49.997%" y1="100.013%" y2=".028%">
            <stop offset="0%" stop-color="gray" stop-opacity=".25"/>
            <stop offset="54%" stop-color="gray" stop-opacity=".12"/>
            <stop offset="100%" stop-color="gray" stop-opacity=".1"/>
        </linearGradient>
        <linearGradient id="b" x1=".017%" x2="99.997%" y1="50.001%" y2="50.001%">
            <stop offset="0%" stop-color="gray" stop-opacity=".25"/>
            <stop offset="54%" stop-color="gray" stop-opacity=".12"/>
            <stop offset="100%" stop-color="gray" stop-opacity=".1"/>
        </linearGradient>
    </defs>
    <g fill="none" fill-rule="evenodd" transform="translate(.218 .496)">
        <path fill="#FFC107" d="M79.662 65.464c2.555-.145 5.725-1.872 8.19-2.637 2.917-.902 5.845-1.77 8.786-2.603a383.06 383.06 0 0 1 33.968-7.983 20.704 20.704 0 0 0-6.85-8.202 20.92 20.92 0 0 0 .115-2.164c0-11.427-9.16-20.69-20.462-20.69a20.184 20.184 0 0 0-9.93 2.6c-8-5.247-18.442-8.422-29.866-8.422-16.234 0-30.484 6.411-38.56 16.066L86.28 41.74c-26.534.79-53.151 1.575-79.61-.278-7.203 6.948-8.468 18.006-3.02 26.393 0 .413.018.824.049 1.23.674.193 1.325.38 1.909.502a420.16 420.16 0 0 0 28.297 4.956c-6.995 4.3-15.514 4.908-23.583 6.73 3.907 3.215 9.214 5.186 15.061 5.186h87.065c9.427 0 17.069-6.543 17.069-14.615a20.727 20.727 0 0 0 2.774-7.594c-17.444 1.679-35.107.22-52.629 1.215z" opacity=".158"/>
        <path fill="url(#a)" fill-rule="nonzero" d="M114.393 41.16a1.516 1.516 0 0 0-.665-.291c-.254-.059-.514-.096-.773-.136l-3.352-.484a3.946 3.946 0 0 0-1.026-.055c-.348.029-.67.196-.893.464a.696.696 0 0 0-.155.436c.018.16.07.313.152.452.032.065.06.131.083.2.032.154.072.306.12.456a.387.387 0 0 0 .057.09v.024c-.037.188.082.384.029.565-.047.155-.198.25-.293.379a.57.57 0 0 0-.014.628c.102.158.288.265.34.446.07.239-.118.47-.285.653-.308.339-.593.698-.852 1.075a.666.666 0 0 0-.137.32c-.015.237.213.445.173.681-.031.185-.212.298-.369.409-.578.381-1.043.994-1.089 1.688a5.914 5.914 0 0 0-1.318-2.997c-.194-.235-.408-.47-.488-.767-.03-.119-.036-.246-.077-.36-.136-.361-.569-.516-.758-.849-.136-.234-.136-.535-.305-.74-.169-.206-.434-.253-.58-.452a2.886 2.886 0 0 1-.185-.42.917.917 0 0 0-.315-.347c.046-.04.072-.099.073-.16 0-.16-.158-.265-.296-.344-.177-.1-.35-.21-.519-.323.185-.085.344-.216.465-.38a1.25 1.25 0 0 0 .177-.817c-.01-.23-.095-.45-.244-.625-.086-.092-.193-.157-.283-.243-.233-.227-.312-.564-.409-.874-.128-.41-.328-.838-.7-1.055-.18-.105-.39-.154-.566-.264-.175-.11-.322-.319-.261-.52.04-.135.167-.23.253-.345a.69.69 0 0 0-.173-.954c-.1-.064-.224-.12-.245-.237a.433.433 0 0 1-.316-.335c-.03-.16-.03-.325 0-.485l.105-.757c.121.05.257.05.379 0 .117.191.254.37.408.534.415.49.737 1.05.953 1.655.078.218.157.462.358.578.07.039.148.06.217.102a.809.809 0 0 1 .212.218c.163.216.327.431.489.648l.008.033a.19.19 0 0 0 .022.054c.03.034.072.056.117.06.5.116 1.063.222 1.497-.052.392-.245.564-.73.896-1.054.236-.23.57-.409.636-.733a2.409 2.409 0 0 1-.234-.086c.068-.068.136-.147.228-.237.135-.132.256-.276.363-.432.115-.191.206-.396.272-.61.262-.748.525-1.497.79-2.246.125-.354.25-.711.408-1.056.163-.373.357-.732.535-1.098.46-.953.815-1.953 1.06-2.983a1.09 1.09 0 0 0 .041-.435c-.038-.236-.216-.421-.386-.589a2.838 2.838 0 0 0-.58-.48.952.952 0 0 0-.727-.118c-.349.103-.568.46-.648.818-.08.358-.05.727-.085 1.09-.049.524-.228 1.03-.272 1.557-.023.303 0 .611-.037.915-.067.398-.205.78-.408 1.128a7.301 7.301 0 0 1-1.76 2.172c-.084.07-.17.136-.251.21 0-.058.01-.118.018-.176-.06.015-.117.036-.173.061a.52.52 0 0 0-.02-.204c-.11-.326-.594-.41-.681-.74a1.513 1.513 0 0 1-.024-.248c-.028-.29-.226-.535-.294-.817-.062-.26-.015-.545-.136-.786a2.197 2.197 0 0 0-.362-.41 1.604 1.604 0 0 1-.344-.649c-.018-.067-.034-.136-.053-.203a.93.93 0 0 0-.05-.448c-.123-.308-.443-.506-.559-.817-.09-.243-.05-.545-.22-.733a.796.796 0 0 0-.323-.195 7.175 7.175 0 0 0-1.943-.46c-.373-.033-.784-.052-1.051-.315-.312-.306-.327-.855-.692-1.09-.32-.209-.776-.055-1.025.238a1.298 1.298 0 0 0-.103.136 1.459 1.459 0 0 1-.029-.558c0-.046.01-.094.014-.136a2.723 2.723 0 0 0 1.476-1.166v.008l.016.042c.04.1.102.195.195.206a.272.272 0 0 0 .168-.062 1.398 1.398 0 0 0 .485-.587 1.62 1.62 0 0 0 .136-.456c.025-.158.027-.32.055-.478.025-.123.058-.243.1-.361l.039-.119.043-.136c.085-.28.131-.57.136-.864v-.147a1.438 1.438 0 0 0-.457-1.015c-.234-.192-.545-.272-.716-.532-.112-.175-.136-.4-.202-.604a1.362 1.362 0 0 0-1.07-.963 1.19 1.19 0 0 0-.847.233l-.019.015c-.135.103-.25.23-.337.376a1.123 1.123 0 0 1-.48-.273c-.136-.126-.24-.286-.378-.408a.973.973 0 0 0-.97-.205 1.16 1.16 0 0 0-.692.795c-.075.28-.062.603-.218.837-.121.183-.32.273-.459.439a.826.826 0 0 0-.172.364.986.986 0 0 0-.015.328v.016a.954.954 0 0 0 .226.484.896.896 0 0 0 .487.287l.162.037.057.014a2.718 2.718 0 0 0-.077 2.399c0 .038-.01.076-.013.114a9.429 9.429 0 0 0 .07 1.606c.02.212.03.445-.099.612a1.16 1.16 0 0 1-.197.176c.073-.096.148-.19.225-.283-.192-.194-.496-.218-.768-.2a3.556 3.556 0 0 0-1.498.458c-.305.176-.618.409-.967.368-.205-.023-.408-.136-.608-.082a1.233 1.233 0 0 0-.312.186.422.422 0 0 1-.256.079c-.214-.263-.544-.442-.8-.656a6.31 6.31 0 0 1-.797-.854c-.44-.532-.88-1.066-1.314-1.604-.364-.453-.739-.942-.803-1.52a1.49 1.49 0 0 1-.01-.174c.01-.275.044-.549.104-.817a.409.409 0 0 0 0-.198c-.04-.136-.197-.186-.332-.216.018-.105.03-.213.037-.315.076-1.172-.007-2.362.24-3.51.095-.44.248-.887.566-1.208.497-.502 1.328-.624 1.71-1.219.318-.496.192-1.197-.209-1.635-.4-.437-1.017-.615-1.603-.594a.827.827 0 0 0-.467.126.993.993 0 0 0-.284.43l-.584 1.421c-.169.37-.312.752-.427 1.142-.164.596-.2 1.226-.33 1.828 0 .463-.298 1.04-.461 1.467-.183.48-.38.954-.545 1.443-.04.122-.183.486-.272.817a.498.498 0 0 0-.093.07 2.464 2.464 0 0 0-.193.287c-.124.164-.325.25-.461.409-.137.158-.165.448.024.527a.555.555 0 0 0 .119.026.46.46 0 0 1 .073.012c.204.057.285.315.255.527-.03.213-.137.409-.154.621-.037.376.184.727.396 1.043.22.342.463.67.727.98.192.214.408.408.602.615.736.757 1.322 1.643 1.983 2.466.238.31.509.594.808.847.195.153.399.293.611.42l1.138.723c.13.095.275.163.43.203.05.007.102.007.153 0 .007.034.012.067.02.1.089.358.283.682.305 1.046.022.363-.01.735.015 1.103.025.34.1.681.119 1.015.038.643-.12 1.278-.273 1.907-.23.921-.369 1.861-.817 2.696-.125.23-.272.465-.272.728 0 .03 0 .064.008.095l-.204.116c-.06.034-.12.068-.174.103-.259.17-.535.356-.641.647-.086.236-.047.506-.15.735a.326.326 0 0 1-.016.03c-.11.212-.326.37-.375.603-.037.179.034.368 0 .545v.007c-.03.089-.055.18-.073.272-.002.03 0 .06.008.09a.52.52 0 0 0 .163.266c.05.047.103.09.16.127.058.038.117.073.18.106l.035.019c.051.027.103.053.156.078l.036.014c.06.028.123.052.186.074l.044.014c.049.016.099.031.15.043l.033.011.032.007.136.029.05.01c.06.01.121.017.184.024h.054c.047 0 .092.006.137.008h.249c.064 0 .128-.01.192-.018h.02c.057-.008.115-.018.172-.03l.043-.01c.053-.012.106-.024.16-.04l.028-.008c.064-.02.128-.04.19-.064a5 5 0 0 0 .63-.312c.136-.075.272-.152.408-.221a3.17 3.17 0 0 1 .31-.136c.258-.11.538-.157.817-.137.138.02.275.047.409.084v.044a491 491 0 0 1 .328 1.962c.178-.128.367-.242.564-.339a1.255 1.255 0 0 0-.073.55c.013.13.04.273-.038.375-.047.063-.136.098-.162.169a.577.577 0 0 0-.013.222.354.354 0 0 1-.324.33.518.518 0 0 1-.206.607.719.719 0 0 0-.158.104.471.471 0 0 0-.091.205 3.64 3.64 0 0 1-1.066 1.754c-.194.152-.37.325-.527.515a2.345 2.345 0 0 0-.238.47A285.86 285.86 0 0 1 86.75 51.4c-.207.497-.408 1.002-.473 1.538-.164 1.468-1.47 2.713-1.226 4.171.05.364.197.708.425.996.272.328.68.516 1.09.669 1.049.408 2.156.632 3.258.857l1.732.355c.34.078.685.133 1.032.164.418.028.847-.011 1.254.095.252.065.493.187.753.2.223.012.498-.035.63.147.132.183.03.424.155.586.202.258.693 0 .913.243.06.093.105.194.136.3.033.067.08.125.136.172.013.077.019.155.016.233a4.02 4.02 0 0 1-.196.93l-.489 1.66a3.68 3.68 0 0 0-.136.6 1.44 1.44 0 0 0 0 .296c.029.301.202.612.489.71.223.06.46.03.662-.082.194-.101.377-.225.544-.367a3.72 3.72 0 0 0 .786-.81c.68-1.019.46-2.397.938-3.524.317-.752.935-1.362 1.14-2.155a.863.863 0 0 0 .017-.466c-.086-.272-.376-.428-.647-.526h-.012a5.58 5.58 0 0 0-.68-.195c-.058-.012-.116-.021-.175-.03a1.07 1.07 0 0 1-.3-.393.913.913 0 0 0-.065-.236.245.245 0 0 0-.196-.109c-.136-.014-.318.036-.467.025-.303-.022-.505-.32-.777-.458s-.568-.104-.858-.083a.793.793 0 0 1-.31-.02 1.167 1.167 0 0 1-.327-.224 1.369 1.369 0 0 0-1.2-.241c-.13.052-.268.084-.408.092-.265-.015-.453-.252-.65-.431-.536-.492-1.3-.622-1.95-.944a.445.445 0 0 1-.234-.202c-.075-.185.094-.37.246-.497l1.12-.93c1.224-1.02 2.756-1.787 3.325-3.281.06-.2.152-.39.272-.56a.76.76 0 0 1 .152-.136c.247-.16.547-.22.837-.164.353.08.688.225.986.43.487.296.961.614 1.422.954.457.327.891.684 1.3 1.068.715.682 1.31 1.49 1.976 2.224.666.734 1.427 1.42 2.351 1.77.924.352 2.042.337 2.836-.253.916-.68 1.21-1.899 1.442-3.016.51-.493.664-1.244.913-1.907.157-.421.357-.817.526-1.237.201-.493.36-1.003.517-1.51.179-.511.3-1.04.362-1.577.066-.849-.162-1.752.076-2.549.315-.07.6-.246.91-.35.46-.151.953-.127 1.44-.124h.032a.743.743 0 0 0 .479-.113c.163-.136.189-.37.197-.58.02-.522-.013-1.108-.404-1.446zM94.697 18.016a.469.469 0 0 1-.374.067l.374-.067z"/>
        <path fill="#BE6F72" d="M95.203 26.54c-.164.14-.358.243-.566.301l-.965.346c-.524.188-1.072.378-1.624.31-.31-.039-1.634-.233-1.834-.475-.305-.373.764-.922 1.128-1.236.083-.06.16-.128.23-.202.135-.166.118-.4.099-.609a9.406 9.406 0 0 1-.071-1.603c.01-.128.029-.255.054-.38.136-.627.719-.398 1.18-.232.553.18 1.089.412 1.599.693.155.08.29.195.395.335.201.306.12.706.088 1.09-.028.299-.027.585.16.801.093.083.18.174.257.273a.511.511 0 0 1-.13.588zM81.87 16.722c.136-.603.166-1.226.33-1.824.114-.389.257-.769.427-1.137l.6-1.402a.99.99 0 0 1 .283-.43.838.838 0 0 1 .467-.125c.587-.021 1.204.161 1.604.593.4.432.527 1.13.208 1.625-.381.595-1.213.715-1.71 1.217-.317.32-.47.765-.565 1.205-.248 1.145-.165 2.331-.24 3.5-.025.364-.096.78-.41.967-.188.093-.399.134-.61.119l-.892.015c-.15 0-.693.094-.793-.02-.174-.197.224-1.18.296-1.4.16-.486.358-.96.544-1.438.162-.427.46-1.003.46-1.465z"/>
        <path fill="#3F3D56" d="M100.31 59.52c-.205.787-.823 1.4-1.14 2.15-.479 1.125-.263 2.5-.939 3.516a3.713 3.713 0 0 1-.785.81c-.167.142-.35.265-.545.367a.895.895 0 0 1-.661.081c-.288-.098-.46-.408-.49-.708a1.43 1.43 0 0 1 0-.296c.03-.202.075-.402.137-.598l.489-1.656c.101-.3.167-.611.196-.927.017-.343-.2-.79-.108-1.11.042-.144.2-.272.272-.394a2.28 2.28 0 0 0 .235-.557c.111-.38.187-.786.422-1.106.152-.19.331-.357.53-.497.148-.13.32-.226.507-.285a1.24 1.24 0 0 1 .545.026c.23.05.458.114.68.193h.013c.272.099.56.25.646.525a.857.857 0 0 1-.004.466zM114.796 42.772c-.008.211-.034.447-.198.579a.743.743 0 0 1-.479.113h-.037c-.486 0-.98-.027-1.44.124-.35.116-.671.328-1.036.37-.502.058-.975-.218-1.42-.457-.42-.226-.85-.43-1.29-.613-.288-.119-.877-.195-1.016-.511a4.653 4.653 0 0 1-.12-.455 1.513 1.513 0 0 0-.083-.2 1.152 1.152 0 0 1-.153-.451c.001-.16.056-.313.156-.436.224-.266.545-.431.891-.46a3.946 3.946 0 0 1 1.027.055l3.352.482c.258.037.518.074.773.137.242.042.47.142.664.291.397.333.43.917.409 1.432z"/>
        <path fill="#65617D" d="M111.85 43.644c-.409.862-.115 1.882-.188 2.836a7.233 7.233 0 0 1-.362 1.572c-.158.507-.316 1.015-.518 1.507-.168.409-.369.817-.525 1.234-.25.665-.409 1.413-.914 1.907-.231 1.115-.525 2.332-1.441 3.008-.797.589-1.906.61-2.836.254-.93-.356-1.686-1.037-2.352-1.771-.665-.735-1.26-1.534-1.975-2.218a12.39 12.39 0 0 0-1.303-1.067c-.46-.335-.935-.65-1.423-.945a2.849 2.849 0 0 0-.985-.43c-.29-.055-.59.004-.837.164a.76.76 0 0 0-.152.136c-.12.17-.213.359-.272.559-.572 1.49-2.106 2.256-3.331 3.272l-1.12.928c-.152.126-.32.312-.246.496a.445.445 0 0 0 .234.201c.651.322 1.415.451 1.951.942.196.18.384.416.65.43.14-.008.278-.039.408-.091.415-.113.86-.024 1.2.24.095.093.205.169.326.224a.793.793 0 0 0 .31.02c.29-.021.598-.047.858.082.26.13.474.435.778.457.148.01.325-.038.467-.025.079.003.152.043.196.11a.904.904 0 0 1 .064.234c.056.192.243.309.366.467.188.242.215.572.196.879a3.75 3.75 0 0 1-1.193 2.509c-.2.204-.454.346-.733.409a.68.68 0 0 1-.727-.323 1.12 1.12 0 0 0-.137-.3c-.219-.241-.71.015-.912-.242-.125-.161-.035-.419-.155-.585-.12-.166-.408-.136-.63-.146-.26-.013-.501-.136-.753-.2-.409-.106-.836-.067-1.254-.095a7.565 7.565 0 0 1-1.032-.164l-1.732-.354c-1.102-.225-2.21-.452-3.259-.854-.402-.153-.806-.34-1.09-.668a2.044 2.044 0 0 1-.424-.994c-.246-1.454 1.06-2.696 1.225-4.16.059-.535.273-1.039.474-1.534.37-.887.738-1.774 1.106-2.661.06-.165.137-.323.231-.471a3.42 3.42 0 0 1 .527-.514 3.628 3.628 0 0 0 1.066-1.75.471.471 0 0 1 .091-.205.765.765 0 0 1 .158-.102c.2-.13.285-.38.206-.606a.354.354 0 0 0 .324-.33.57.57 0 0 1 .013-.22c.033-.071.115-.107.162-.17.078-.102.05-.245.038-.373a1.252 1.252 0 0 1 .365-1.005c.326-.32.789-.237 1.238-.313a7.086 7.086 0 0 0 1.307-.419 12.833 12.833 0 0 1 3.69-.854c1.273-.1 2.55.104 3.728.594.172.07.333.161.48.273.106.08.192.183.253.3.05.145.112.285.185.419.146.199.42.263.58.45.16.189.173.506.305.74.19.332.627.485.758.847.041.114.046.24.076.358.074.297.294.531.49.765a5.888 5.888 0 0 1 1.317 2.997c.044-.69.508-1.302 1.09-1.683.156-.103.337-.216.368-.4.04-.235-.188-.444-.173-.682a.668.668 0 0 1 .136-.319c.26-.376.545-.734.853-1.072.167-.184.355-.409.285-.651-.053-.181-.238-.288-.34-.446a.567.567 0 0 1 .014-.626c.095-.13.246-.224.292-.378.054-.18-.065-.377-.028-.564a.697.697 0 0 1 .28-.363c.181-.165.386-.3.609-.4.36-.137.76-.087 1.14-.033.638.088 1.353.224 1.712.758.23.334.347.84.176 1.198z"/>
        <path fill="#000" d="M114.796 42.772c-.008.211-.034.447-.198.579a.743.743 0 0 1-.479.113h-.037c.056-.283.4-.446.46-.733a.649.649 0 0 0-.15-.494c-.29-.394-.759-.612-1.224-.772a8.112 8.112 0 0 0-4.093-.306 4.12 4.12 0 0 0-1.075.331c-.114.07-.223.148-.327.232a1.152 1.152 0 0 1-.153-.451c0-.16.056-.313.156-.436.224-.266.545-.431.891-.46a3.946 3.946 0 0 1 1.027.055l3.352.482c.258.037.518.074.773.137.242.042.47.142.664.291.4.333.433.917.413 1.432zM100.31 59.52c-.205.787-.823 1.4-1.14 2.15-.479 1.125-.263 2.5-.939 3.516a3.713 3.713 0 0 1-.785.81c-.167.142-.35.265-.545.367a.895.895 0 0 1-.661.081c-.288-.098-.46-.408-.49-.708a1.43 1.43 0 0 1 0-.296l.009.022c.118.286.312.586.617.636a.834.834 0 0 0 .629-.222c.449-.36.71-.899.96-1.418a5.9 5.9 0 0 0 .46-1.175c.054-.232.08-.47.136-.7.258-1.126 1.14-2.044 1.334-3.184a.78.78 0 0 0 .01-.239 1.205 1.205 0 0 0-.116-.297 1.472 1.472 0 0 1-.104-.33c.273.099.561.25.647.525a.857.857 0 0 1-.022.462zM98.254 57.566c-.126.33-.338.62-.614.84a2.994 2.994 0 0 1-1.322.572 1.314 1.314 0 0 1-.68-.008c-.302-.105-.52-.389-.83-.47-.22-.06-.457-.007-.68-.04-.402-.056-.713-.362-1.037-.608-.993-.746-2.296-.987-3.288-1.734a.305.305 0 0 1-.107-.11.329.329 0 0 1-.02-.154c.004-.453.105-.9.298-1.31.158-.285.346-.553.561-.799.89-1.09 1.782-2.188 2.847-3.107.446-.386.934-.745 1.497-.92.314-.097.932-.188 1.313-.024a.76.76 0 0 0-.151.136c-.121.17-.213.358-.273.558-.573 1.492-2.107 2.258-3.332 3.274l-1.12.928c-.152.126-.32.312-.246.496a.445.445 0 0 0 .234.201c.651.322 1.415.451 1.951.942.196.18.384.416.65.43.14-.008.278-.039.408-.091.415-.113.86-.024 1.2.24.095.093.205.169.326.224a.793.793 0 0 0 .31.02c.29-.021.598-.047.858.082.26.13.474.435.778.457.15.01.328-.041.47-.025z" opacity=".1"/>
        <path fill="#3F3D56" d="M85.733 39.077c-.258.167-.533.355-.64.643-.087.236-.046.506-.15.735-.105.229-.341.388-.393.633-.037.179.036.367 0 .545a2.35 2.35 0 0 0-.075.283c-.013.203.161.368.331.481.735.478 1.653.58 2.474.273.363-.137.692-.359 1.04-.533.34-.196.729-.29 1.12-.272.225.024.44.106.665.136a.697.697 0 0 0 .622-.185.777.777 0 0 0 .136-.323c.19-.748.104-1.541-.076-2.293-.18-.752-.452-1.475-.644-2.223-.136-.555-.241-1.123-.468-1.647-.228-.525-.61-1.012-1.145-1.213a.214.214 0 0 0-.136-.017.231.231 0 0 0-.089.065 4.19 4.19 0 0 0-.934 1.572c-.214.653-.272 1.345-.468 2-.085.272-.194.637-.409.846-.215.208-.517.338-.76.494z"/>
        <path fill="#000" d="M90.867 41.489a.794.794 0 0 1-.143.322.69.69 0 0 1-.622.184c-.223-.027-.438-.11-.663-.136a2.052 2.052 0 0 0-1.12.273c-.349.174-.681.39-1.042.53a2.747 2.747 0 0 1-2.468-.265c-.172-.111-.345-.272-.33-.48a2.33 2.33 0 0 1 .074-.283c.035-.178-.035-.366 0-.545.052-.245.289-.408.392-.634.104-.226.064-.498.15-.733.106-.29.382-.477.641-.645.259-.167.566-.295.773-.498a.768.768 0 0 0 .073-.101c.149-.23.258-.484.324-.75.2-.657.254-1.348.467-2.002a4.198 4.198 0 0 1 .935-1.57.206.206 0 0 1 .087-.066.218.218 0 0 1 .136.016c.534.202.916.69 1.145 1.214.229.525.325 1.09.468 1.646.191.748.465 1.474.644 2.224.18.751.269 1.55.08 2.299zM94.916 24.874a2.722 2.722 0 0 1-3.316-1.498c.01-.128.029-.255.054-.38.136-.627.719-.398 1.18-.232.553.18 1.089.412 1.599.693.155.08.29.195.395.335.201.302.12.702.088 1.082z" opacity=".1"/>
        <ellipse cx="94.094" cy="22.141" fill="#BE6F72" rx="2.723" ry="2.725"/>
        <path fill="#000" d="M101.482 42.502c0 .226-.306.299-.533.286-.817-.047-1.616-.272-2.425-.204-1.022.093-1.962.658-2.987.71-.395.02-.796-.038-1.186.034-.504.094-.953.4-1.466.444-.445.038-.885-.13-1.33-.112a2.136 2.136 0 0 0-.89.253c.03-.288.16-.557.366-.761.325-.32.788-.237 1.237-.313a7.086 7.086 0 0 0 1.307-.419 12.833 12.833 0 0 1 3.691-.854 8.054 8.054 0 0 1 3.726.59c.172.07.333.161.48.273.008.023.012.048.01.073z" opacity=".1"/>
        <path fill="#E3E8F4" d="M92.835 27.116l-1.103-.408-.466-.172a2.25 2.25 0 0 0-.593-.158c-.534-.04-1.036.315-1.321.768-.285.454-.392.995-.483 1.522a41.703 41.703 0 0 0-.319 2.172 14.194 14.194 0 0 0-.143 1.98c.032 1.687.388 3.35.78 4.992.192.728.337 1.467.435 2.214.032.307.047.617.08.926.035.347.092.69.15 1.035l.328 1.958c.408-.29.872-.545 1.375-.56.445-.016.886.15 1.33.112.51-.043.962-.35 1.466-.443.39-.072.791-.015 1.187-.034 1.024-.052 1.965-.619 2.986-.71.81-.073 1.615.155 2.426.203.226.014.532-.059.532-.286 0-.158-.158-.263-.295-.342a14.567 14.567 0 0 1-1.845-1.317c-.536-.425-1.08-.861-1.45-1.436-.889-1.383-.584-3.253-1.342-4.712-.617-1.185 0-2.738 0-4.075 0-.666 0-1.34-.157-1.987a8.435 8.435 0 0 0-.365-1.063l-.53-1.342a.22.22 0 0 0-.062-.102.208.208 0 0 0-.12-.037 1.276 1.276 0 0 0-.88.282c-.25.203-.409.495-.654.706-.268.233-.614.437-.947.314z"/>
        <path fill="#3F3D56" d="M94.614 26.343c.087-.374.181-.762.43-1.053.25-.292.704-.446 1.025-.237.365.237.38.784.692 1.09.272.261.68.281 1.051.315.666.061 1.32.215 1.943.458a.794.794 0 0 1 .322.194c.17.193.137.49.221.731.116.31.436.508.56.818.136.343 0 .727-.115 1.08-.205.633-.335 1.291-.535 1.928-.2.636-.485 1.262-.953 1.742-.207.212-.515.409-.787.282l-.105.756c-.03.16-.03.324 0 .484a.433.433 0 0 0 .316.335c.02.117.145.173.245.237a.681.681 0 0 1 .173.953c-.086.116-.212.207-.253.345-.061.199.084.409.261.518.177.109.386.159.565.264.373.215.573.639.701 1.05.096.31.175.647.409.873.09.086.197.152.283.242.149.175.234.395.244.625.037.285-.025.574-.177.817-.272.39-.78.506-1.226.681-.722.297-1.317.829-1.955 1.281-.259.21-.565.353-.891.42-.441.058-.876-.137-1.32-.154-.265.002-.53.037-.786.103l-.817.177c.043-.633-.305-1.268-.5-1.872-.367-1.136-.436-2.35-.348-3.541.087-1.191.329-2.365.569-3.534.167-.818.15-1.672.408-2.466.241-.764.585-1.499.712-2.294.207-1.287-.653-2.379-.362-3.648z"/>
        <path fill="#3F3D56" d="M100.807 28.862a1.5 1.5 0 0 1 .157.442c.063.24.18.462.344.649.137.12.259.258.362.408.126.237.078.526.136.785.068.282.266.527.294.817.001.084.01.167.024.248.088.33.573.41.68.739.073.214-.051.447-.028.671.017.07.02.142.012.213a.432.432 0 0 1-.155.199c-.45.43-.763.986-.896 1.595a9.09 9.09 0 0 0-.206 1.843l-.532-.704a.809.809 0 0 0-.212-.218c-.068-.04-.147-.061-.217-.102-.201-.115-.28-.357-.358-.575a5.314 5.314 0 0 0-.953-1.651c-.216-.255-.468-.511-.516-.842a1.551 1.551 0 0 1 .025-.455c.136-.892.282-1.806.716-2.598.203-.37.465-.706.66-1.082.13-.249.315-.897.663-.382zM87.377 29.718a.623.623 0 0 1-.085.327.43.43 0 0 1-.43.137 1.244 1.244 0 0 1-.43-.202l-1.138-.72a6.3 6.3 0 0 1-.612-.42 5.457 5.457 0 0 1-.807-.846c-.662-.818-1.247-1.704-1.984-2.452-.2-.205-.408-.4-.601-.615a8.966 8.966 0 0 1-.727-.978c-.213-.315-.433-.663-.397-1.04.022-.212.124-.408.154-.62.03-.21-.05-.468-.254-.525a.46.46 0 0 0-.074-.012.555.555 0 0 1-.118-.026c-.19-.08-.16-.372-.025-.526.136-.154.338-.24.462-.409.057-.1.122-.196.193-.287a.736.736 0 0 1 .317-.16 4.906 4.906 0 0 1 2.417-.09c.136.03.291.084.332.216a.4.4 0 0 1 0 .196 4.39 4.39 0 0 0-.103.817c0 .058.003.115.01.172.063.578.437 1.067.802 1.518.433.536.873 1.069 1.314 1.6.239.308.505.593.797.852.272.226.624.408.837.699.173.234.117.554.136.836.063.852.068 1.706.014 2.558z"/>
        <path fill="#BE6F72" d="M104.667 35.402a2.86 2.86 0 0 0 .362-.43c.114-.19.206-.395.272-.608l.79-2.241c.125-.354.25-.71.408-1.055.164-.371.357-.73.535-1.09.459-.946.814-1.94 1.058-2.962.043-.14.058-.289.042-.435-.038-.236-.216-.42-.386-.587a2.83 2.83 0 0 0-.58-.48.952.952 0 0 0-.727-.117c-.349.102-.568.46-.648.818-.08.358-.05.724-.085 1.09-.049.523-.228 1.028-.272 1.552-.023.304 0 .61-.037.913a3.335 3.335 0 0 1-.408 1.127 7.313 7.313 0 0 1-1.76 2.166 2.831 2.831 0 0 0-.529.508 1.658 1.658 0 0 0-.254.635c-.09.346-.052.712.11 1.031.222.379.648.545 1.055.63.55.114.677-.074 1.054-.465z"/>
        <path fill="#3F3D56" d="M94.11 18.193a1.27 1.27 0 0 1 1.234-.668c.51.09.925.463 1.07.961.064.203.09.428.201.603.17.262.482.339.716.53.283.262.448.627.458 1.013.013.39-.049.779-.181 1.146a3.645 3.645 0 0 0-.136.48c-.028.157-.03.318-.055.476a1.553 1.553 0 0 1-.625 1.031.272.272 0 0 1-.169.062c-.106-.013-.171-.137-.21-.248-.217-.626-.165-1.39-.564-1.889a2.063 2.063 0 0 0-.646-.48.832.832 0 0 0-.329-.124.867.867 0 0 0-.476.174 2.966 2.966 0 0 1-.943.417c-.34.08-.697.003-.973-.21-.188-.155-.325-.388-.534-.51-.208-.12-.426-.114-.631-.197a.936.936 0 0 1-.379-1.428c.136-.163.338-.256.459-.437.156-.234.143-.556.218-.836.09-.36.348-.655.693-.792a.973.973 0 0 1 .969.203c.136.123.245.28.379.409.267.256.647.359 1.007.272"/>
        <path fill="#000" d="M96.348 38.245a.529.529 0 0 0-.144.578c.03.064 1.435-.207 1.583-.228.37-.053 1.02-.027 1.27-.366.443-.601-.932-.468-1.184-.446-.479.041-1.16.106-1.525.462z" opacity=".1"/>
        <path fill="#3F3D56" d="M83.567 20.671a4.39 4.39 0 0 0-.103.818c-.409.083-.833-.053-1.225-.19l-1.126-.384a.32.32 0 0 0-.43.08c-.182.189-.43.546-.681.757a.555.555 0 0 1-.119-.026c-.189-.08-.16-.372-.024-.526.136-.154.337-.24.461-.409.058-.1.123-.196.194-.287a.736.736 0 0 1 .317-.16 4.906 4.906 0 0 1 2.416-.09c.137.03.292.084.333.216a.4.4 0 0 1-.013.201z"/>
        <path fill="#000" d="M83.567 20.671a4.39 4.39 0 0 0-.103.818c-.409.083-.833-.053-1.225-.19l-1.126-.384a.32.32 0 0 0-.43.08c-.182.189-.43.546-.681.757a.555.555 0 0 1-.119-.026c-.189-.08-.16-.372-.024-.526.136-.154.337-.24.461-.409.058-.1.123-.196.194-.287a.736.736 0 0 1 .317-.16 4.906 4.906 0 0 1 2.416-.09c.137.03.292.084.333.216a.4.4 0 0 1-.013.201zM93.867 46.535c.196.065.408.16.475.356l-1.577-.4-.817-.208c-.144-.037-.661-.08-.757-.193-.136-.166.347-.051.435-.04.264.04.528.081.79.129.496.089.973.234 1.45.356zM94.478 47.93c-.136-.09-.527-.08-.695-.119-.245-.059-.486-.136-.727-.211-.488-.16-.973-.34-1.475-.458-.093-.02-.409-.026-.394-.143.015-.117.316-.158.391-.163.445-.033 1 .175 1.415.324.527.189 1.027.448 1.485.77zM93.479 45.29c-.5-.137-.953-.447-1.468-.507a.596.596 0 0 1-.374-.115.441.441 0 0 1-.122-.218c.345-.017.745.128 1.058.266.173.074.338.162.496.264.114.07.286.27.41.31z" opacity=".1"/>
        <path fill="#3F3D56" d="M103.003 33.091a2.383 2.383 0 0 0 1.67 2.634c-.067.323-.401.501-.637.731-.332.323-.503.807-.895 1.052-.437.272-1 .166-1.498.052a.182.182 0 0 1-.117-.062.168.168 0 0 1-.022-.053c-.165-.603-.272-1.248-.103-1.852.136-.515.463-.954.724-1.409.261-.455.286-.943.878-1.093zM90.83 25.28a3.538 3.538 0 0 0-1.497.456c-.305.175-.618.41-.967.367-.205-.023-.408-.136-.608-.082a1.194 1.194 0 0 0-.312.185.352.352 0 0 1-.343.055l-.136 1.885c-.052.717-.102 1.448.07 2.147.088.357.282.681.304 1.044.022.362-.01.734.015 1.1.025.34.1.674.119 1.013.038.64-.12 1.275-.273 1.897-.23.919-.369 1.857-.817 2.688-.125.23-.272.465-.272.726 0 .033 0 .064.008.096a7.034 7.034 0 0 0-.378.219c-.259.168-.535.354-.641.644-.086.236-.047.506-.15.733-.104.228-.34.39-.392.635-.037.179.034.367 0 .545a2.33 2.33 0 0 0-.075.282c-.014.204.16.37.33.48.25.166.527.287.818.36l.812-3.228a26.04 26.04 0 0 0 1.842-4.287 9.22 9.22 0 0 1 .533-1.412c.154-.257.29-.525.408-.8.124-.344.136-.716.196-1.078.071-.423.178-.84.32-1.244.147-.437.317-.873.347-1.332.045-.657-.193-1.35.06-1.958.108-.227.248-.438.415-.625.352-.43.672-.882 1.023-1.312-.183-.195-.486-.215-.758-.199z"/>
        <g fill="#000" opacity=".1">
            <path d="M94.852 17.842l-.336.033-.038.038a1.47 1.47 0 0 0 .374-.071zM97.782 20.573c-.028.271-.087.538-.174.796a3.645 3.645 0 0 0-.136.48c-.028.158-.03.318-.055.476a1.553 1.553 0 0 1-.625 1.032.272.272 0 0 1-.169.06c-.106-.011-.171-.135-.21-.247-.217-.625-.165-1.39-.564-1.888a2.063 2.063 0 0 0-.646-.481.832.832 0 0 0-.329-.124.867.867 0 0 0-.476.174 2.966 2.966 0 0 1-.943.417c-.34.08-.697.004-.973-.21-.188-.155-.325-.388-.534-.51-.208-.12-.426-.114-.631-.197a.93.93 0 0 1-.542-.659.93.93 0 0 0 .542 1.068c.205.083.437.084.631.198.195.113.346.354.534.51.276.212.634.29.973.209.336-.083.655-.224.943-.417a.867.867 0 0 1 .476-.174c.117.017.23.06.33.124.241.118.457.283.635.485.4.498.347 1.262.564 1.888.04.113.105.235.21.248a.272.272 0 0 0 .18-.066c.34-.246.565-.62.626-1.035.024-.158.027-.319.054-.477.034-.163.08-.323.136-.48.133-.366.194-.755.181-1.145l-.008-.055z"/>
        </g>
        <path fill="#FFC107" d="M89.168 31.504l-.092 1.244c-.014.17-.337 4.19-2.716 8.89-2.043 4.031-6.017 9.282-13.52 12.232-.585.232-1.193.448-1.822.649l-.703-2.207a25.781 25.781 0 0 0 5.067-2.218c3.825-2.21 6.798-5.363 8.871-9.421a25.318 25.318 0 0 0 2.329-6.853h-8.537v-2.316h11.123z"/>
        <path fill="#FFF" d="M71.922 53.872c7.501-2.95 11.476-8.2 13.517-12.23 2.38-4.7 2.704-8.72 2.716-8.891l.093-1.244h.953l-.093 1.244c-.012.169-.336 4.19-2.716 8.89-2.042 4.031-6.016 9.28-13.517 12.23-.586.232-1.194.449-1.825.65l-.092-.29c.328-.117.65-.237.964-.36z" opacity=".1"/>
        <path fill="#FFC107" d="M56.902 52.312l-.702 2.207a28.769 28.769 0 0 1-1.825-.65c-7.501-2.95-11.476-8.2-13.517-12.23-2.38-4.7-2.704-8.72-2.716-8.89l-.093-1.245h11.118v2.316h-8.538a25.333 25.333 0 0 0 2.335 6.853c2.073 4.058 5.045 7.212 8.87 9.42a25.723 25.723 0 0 0 5.068 2.219z"/>
        <path fill="#FFF" d="M55.293 53.872c-7.501-2.95-11.477-8.2-13.518-12.23-2.38-4.7-2.703-8.72-2.716-8.891l-.092-1.244h-.953l.092 1.244c.013.169.337 4.19 2.716 8.89 2.043 4.031 6.017 9.28 13.518 12.23.585.232 1.194.449 1.824.65l.093-.29a36.954 36.954 0 0 1-.964-.36z" opacity=".1"/>
        <path fill="#FFC107" d="M76.451 73.645v12.489H50.765V73.645l.817-1.09C59.906 69.6 61.592 61.89 61.929 58.84c.05-.421.078-.845.085-1.27h3.177c.007.425.035.849.085 1.27.342 3.05 2.029 10.762 10.347 13.716l.828 1.09z"/>
        <path fill="#000" d="M50.765 73.645h25.686v1.567H50.765z" opacity=".1"/>
        <path fill="#FFF" d="M52.943 72.556c8.324-2.957 10.01-10.666 10.347-13.716.05-.421.079-.845.086-1.27h-1.362c-.007.425-.035.849-.085 1.27-.342 3.05-2.029 10.762-10.347 13.716l-.817 1.09v12.488h1.361V73.645l.817-1.09z" opacity=".1"/>
        <path fill="#000" d="M46.863 31.504h2.304v2.316h-2.1a59.023 59.023 0 0 1-.204-2.316zM56.902 52.312l-.702 2.207a28.769 28.769 0 0 1-1.825-.65 24.406 24.406 0 0 1-2.541-3.776 25.723 25.723 0 0 0 5.068 2.219zM70.314 52.312a25.781 25.781 0 0 0 5.067-2.218 24.503 24.503 0 0 1-2.542 3.778c-.585.231-1.193.448-1.823.648l-.702-2.208zM80.352 31.504a59.023 59.023 0 0 1-.205 2.316H78.05v-2.316h2.303zM65.282 58.84a8.795 8.795 0 0 1-3.348 0c.05-.421.079-.845.086-1.27h3.176c.007.425.036.849.086 1.27z" opacity=".1"/>
        <path fill="#FFC107" d="M47.135 27.668c.059 17.173 7.41 31.06 16.474 31.06 9.063 0 16.413-13.887 16.473-31.06H47.135z"/>
        <path fill="#FFF" d="M50.062 27.668h-2.927c.059 17.173 7.41 31.06 16.474 31.06.49 0 .98-.042 1.463-.124-8.378-1.4-14.954-14.697-15.01-30.936z" opacity=".1"/>
        <path fill="#3F3D56" d="M54.872 78.426h17.471v4.496H54.872z"/>
        <path fill="#FFF" d="M55.69 79.039h16.654v-.613H54.872v4.495h.817z" opacity=".1"/>
        <path fill="url(#b)" fill-rule="nonzero" d="M37.818 44.249c-.315-.105-2.166-1.571-2.307-2.235-.14-.663.98-6.844.98-6.844s-.104 0-.273-.02v-.1l.23-8.119s.944-5.449-.839-5.132c-1.782.318-.664 5.132-.664 5.132s-.203 2.444-.346 3.177c-.136.707-.76 3.587-.335 4.482a.976.976 0 0 0 .052.093s.07 3.072-.698 3.491c-.734.4-1.04 2.409-1.065 2.589l-.04-.017a2.134 2.134 0 0 1-.567-.519c-.017-.02-.029-.042-.044-.064a2.998 2.998 0 0 0-.923-4.685c-.009-.26-.07-.516-.18-.752-.355-.757-2.315-1.748-3.708-1.77-.643-.02-1.17.163-1.361.665-.098.255-.069.545-.11.81-.081.545-.431.97-.88 1.31a5.524 5.524 0 0 0-.587-.565c-.455-.349-1.361-1.499-1.361-1.499s-2.83-2.933-3.04-3.737c-.21-.803-3.038-5.63-3.667-4.79-.629.841 2.166 4.504 2.166 4.504s.531 1.331.94 1.78c.408.45 3.54 5 3.54 5l.149.311c-.662.349-1.266.793-1.48 1.485-.313 1.019.372 2.043.846 2.997.923 1.86 1.055 4.234-.137 5.934-1.067 1.501-2.918 2.215-4.652 2.84a4.577 4.577 0 0 0 2.941.976c-.4 1.16-1.819 1.545-3.028 1.76.635.61 1.543.832 2.414.967.427.073.86.107 1.292.102h.106l.107-.008c.147-.01.294-.028.44-.056.628-.128 1.24-.471 1.56-1.027.273-.475.368-1.124.863-1.362a1.1 1.1 0 0 1 .408-.097h-.015.28l2.06.02h.263c.581-.013 1.202-.114 1.498-.595.121-.233.185-.492.186-.756.044-.652 0-1.324.018-1.982.176 1.198.36 3.064-.078 3.753-.355.523-.785.99-1.277 1.386-.123.104-.236.22-.337.346a3.568 3.568 0 0 1-.107.073l-.042.127a2.4 2.4 0 0 0-.332.771.536.536 0 0 0-.026.22c.048.096-.34.495-.227.663-.97 1.137-1.153 2.86-1.153 2.86l-1.77 2.69c-.91 2.39-2.271 2.636-2.271 2.636s-3.198-2.147-3.285-2.252c-.087-.105-1.31-.63-1.31-.63a1.386 1.386 0 0 0-.629-.574c-.42-.175-.455-.818-.455-.818-.051-1.519-.943-1.634-.943-1.634-.719-.062-1.268.066-1.69.3l-.128.01c-.618.05-1.361.106-2.178.16-2.272.15-2.813 1.623-2.813 1.623s-.279.315.088.656c.366.34 2.71 0 2.81-.009-.18.02-.36.007-.534-.036.369-.014.877-.028 1.31-.028h.104c-.027.23-.04.461-.04.692 0 .436 1.206.716 1.206.716l3.669 3.27s2.306 1.03 3.774 2.514c1.467 1.483 2.765.203 2.765.203 1.553-.384 6.023-5.791 6.027-5.797 0 .158.094 5.417.272 6.473.007.053.02.106.04.156.21.454-.071 1.694-.192 2.217a6.161 6.161 0 0 0-.089 1.327s-1.676 6.402-1.537 6.965c.139.563-.908 3.177-.908 3.177v2.18l.183-.01a1.177 1.177 0 0 0-.066.109l-.012.023s1.118.244 1.87.174c.75-.069 2.041.58 2.041.58s.437.207 1.782.294c1.346.087 1.346-.594 1.346-.594-.154-.928-2.28-1.239-2.345-1.248a6.26 6.26 0 0 1-.464-.326l-.027-.021a.583.583 0 0 0 .023-.063c.227-.927-1.03-1.328-1.03-1.328v-.227c.816-.42.978-3.299.978-3.299s1.225-3.561 1.397-4.155c.171-.594 0-1.484 0-1.484l.122-.768s.263-.523.263-.628c.034-.266.136-.518.297-.733.192-.227-.21-.768-.21-.768l.35-.907v-.996l.817-3.613s.856-4.208.56-5.585c-.297-1.378.35-2.078.35-2.078a1.72 1.72 0 0 1-.18.082c.082-.19.152-.383.21-.58l1.839.227v.027h.663s-.21-2.588-.21-3.632c0-1.043.707-4.788.707-4.788s.314-3.66 0-3.765zm-8.16-3.022c0 .102-.009.208-.016.317l-.036.056-.069-.057-.083.13-.024.012c-.18-.093-.272-.623-.402-.508l-.017.015c-.029-.033-.058-.043-.088-.015l-.027.023v-.121c.25.064.505.096.763.096v.052zm6.22 12.054h.11l-.18.374c.022-.125.044-.247.07-.374zm-6.73 31.08l-.338-.173.184-.064.17.229.02.03-.036-.023zm2.598-.326a5.737 5.737 0 0 1-.375-.374c.041.038.203.182.375.374z"/>
        <path fill="#F86D70" d="M36.675 50.707l-1.648 4.3h.4l-1.55 1.237 2.798.348z"/>
        <path fill="#000" d="M36.675 50.707l-1.648 4.3-.415-.112-.736 1.349 2.8.348z" opacity=".1"/>
        <path fill="#F86D70" d="M34.09 53.458h2.585l.95-7.813H34.09z"/>
        <path fill="#000" d="M34.09 53.458h2.585l.95-7.813H34.09z" opacity=".1"/>
        <path fill="#FBBEBE" d="M29.04 47.495l.559-.094 1.282-.218s3.852-.87 4.647-.94a4.963 4.963 0 0 0 1.394-.398c.208-.09.34-.158.34-.158l-1.387-2.535-2.152-1.597s-1.362-.29-1.938-1.083a1.277 1.277 0 0 1-.178-1.21c.351-1.09-2.098 1.043-2.098 1.043s.023.51 0 1.162c0 .128-.012.261-.022.398 0 .09-.012.18-.022.272-.06.647-.182 1.313-.424 1.711-.593.973 0 3.647 0 3.647z"/>
        <path fill="#000" d="M29.509 41.521h.054c.098 0 .177-.208.273-.218.766-.073 1.466-.234 1.952-.778a1.278 1.278 0 0 1-.178-1.208c.35-1.09-2.098 1.04-2.098 1.04s.025.513-.003 1.164z" opacity=".1"/>
        <path fill="#FBBEBE" d="M26.527 38.432a2.986 2.986 0 0 0 2.985 2.986c.098 0 .194 0 .29-.014a2.986 2.986 0 0 0-.387-5.956 2.985 2.985 0 0 0-2.888 2.984z"/>
        <path fill="#3F3D56" d="M25.611 33.9c-.098.253-.068.536-.107.804-.146.969-1.13 1.55-2.02 1.955-.891.406-1.896.887-2.18 1.823-.31 1.012.368 2.027.84 2.977.917 1.85 1.048 4.21-.137 5.901-1.052 1.499-2.886 2.21-4.612 2.834.83.654 1.863.998 2.92.972-.396 1.154-1.805 1.537-3.006 1.75.63.607 1.533.828 2.398.961.63.098 1.277.162 1.906.036.629-.127 1.225-.469 1.549-1.022.272-.473.365-1.117.856-1.356.222-.087.461-.122.699-.102l2.042.022c.636 0 1.388-.049 1.717-.592.12-.233.184-.49.185-.752.088-1.341-.17-2.758.382-3.981.166-.37-.9-.954-.788-1.345.384-1.344.48-2.403.476-3.802 0-1.083.704-2.016 1.286-2.93.581-.914 1.067-2.068.608-3.049-.517-1.094-4.403-2.684-5.014-1.105z"/>
        <path fill="#FBBEBE" d="M28.33 83.78l.52.346.08.053.015.01.617.408 1.44.242 1.266-.087s.365-.763-.208-.745a1.192 1.192 0 0 1-.523-.151l-.079-.04a3.54 3.54 0 0 1-.247-.144 6.258 6.258 0 0 1-.46-.324c-.191-.147-.318-.26-.318-.26l-2.103.693z"/>
        <path fill="#000" d="M28.857 84.126l.08.053.015.01.617.408 1.44.242 1.266-.087s.365-.763-.208-.745a1.192 1.192 0 0 1-.523-.151c.101.079.185.165.194.237.023.195-.937.545-.937.545l-1.353-.359s-.23-.065-.545-.147l-.03-.008-.016.002z" opacity=".1"/>
        <path fill="#3F3D56" d="M26.542 84.458s1.11.242 1.856.173c.746-.07 2.031.573 2.031.573s.434.205 1.77.292 1.336-.591 1.336-.591c-.153-.923-2.263-1.226-2.328-1.24.025.014.136.07.247.144.15.099.312.227.324.33.024.194-.936.545-.936.545l-1.354-.357s-.23-.067-.544-.148h-.03c-.466-.127-.94-.225-1.419-.293-.582-.063-.88.433-.942.545a.162.162 0 0 0-.01.027z"/>
        <path fill="#FBBEBE" d="M9.053 59.96l.59.452s.171-.008.427-.016h.082c.366-.014.871-.027 1.3-.027.277-.013.555.003.83.046.293.103.816-1.684.816-1.684l-.59-.136-.197-.046-.136-.033-.48-.113-1.457.166-1.024.66-.16.73z"/>
        <path fill="#000" d="M9.053 59.96l.59.452s.171-.008.427-.016a.516.516 0 0 1-.272-.244c-.381-1.059 1.51-1.51 1.51-1.51l.88-.039.172-.008h.136l-.196-.046-.136-.033-.48-.113-1.457.166-1.024.66-.15.73z" opacity=".1"/>
        <path fill="#3F3D56" d="M7.89 60.438c.357.33 2.694 0 2.792-.008a1.47 1.47 0 0 1-.53-.037.584.584 0 0 1-.408-.293c-.382-1.06 1.51-1.51 1.51-1.51l.88-.039.17-.008 2.142-.093.103-.59s-.695.066-1.787.153c-.614.05-1.362.106-2.169.16-2.256.15-2.792 1.614-2.792 1.614s-.274.313.09.651z"/>
        <path fill="#FBBEBE" d="M34.091 34.868a.604.604 0 0 0 .052.093l.52.762 1.354.137.014-.537.228-8.076s.937-5.416-.833-5.104c-1.77.312-.66 5.104-.66 5.104s-.2 2.43-.342 3.16c-.138.706-.755 3.575-.333 4.46zM31.054 54.926l.385.66.862 1.475s1.563.573 1.963.136c.22-.238.456-1.07.623-1.77.136-.568.227-1.046.227-1.046l-4.06.545z"/>
        <path fill="#000" d="M31.054 54.926l.385.66a.454.454 0 0 0 .066-.07c.435-.556 2.354-.118 3.382-.083.136-.567.227-1.045.227-1.045l-4.06.538zM11.452 60.366c.277-.013.555.003.83.046.293.104.816-1.684.816-1.684l-.787-.185 2.142-.093.103-.59s-.695.066-1.787.153c-.226.13-.427.298-.595.497l-.033.041c-.456.56-.625 1.282-.689 1.815zM28.33 83.78l.6.399c.896-.162 1.714-.417 1.811-.818v-.019c-.19-.147-.317-.259-.317-.259l-2.094.698zM26.555 84.435c.79-.04 1.579-.124 2.36-.254a11.601 11.601 0 0 0-1.42-.295c-.581-.063-.88.433-.94.549z" opacity=".1"/>
        <path fill="#3F3D56" d="M11.518 61.054c0 .434 1.196.712 1.196.712l3.645 3.247s2.29 1.024 3.746 2.5c1.457 1.475 2.742.208 2.742.208 1.544-.382 5.99-5.764 5.99-5.764s.104 6.147.312 6.598c.209.45-.069 1.683-.19 2.205a6.134 6.134 0 0 0-.087 1.319s-1.665 6.371-1.526 6.927c.138.556-.903 3.16-.903 3.16v2.17s4.077-.156 4.302-1.076c.225-.92-1.022-1.32-1.022-1.32v-.226c.816-.417.97-3.28.97-3.28s1.216-3.542 1.389-4.132c.173-.59 0-1.477 0-1.477l.121-.763s.26-.521.26-.625c.034-.264.136-.515.296-.729.19-.226-.209-.764-.209-.764l.347-.903v-.99l.817-3.593s.851-4.185.556-5.557c-.296-1.371.347-2.065.347-2.065-1.393.73-2.095-.895-2.325-1.594-.059-.18-.087-.3-.087-.3s-1.913-.705-3.694-.536a4.25 4.25 0 0 0-1.06.225c-1.979.712-2.29 3.663-2.29 3.663l-1.753 2.674c-.902 2.379-2.256 2.621-2.256 2.621s-3.174-2.135-3.267-2.24c-.093-.104-1.302-.625-1.302-.625a1.375 1.375 0 0 0-.624-.572c-.417-.174-.451-.817-.451-.817-.052-1.511-.937-1.635-.937-1.635-3.071-.256-3.053 2.92-3.053 3.354z"/>
        <path fill="#F86D70" d="M31.054 52.565H29.18V46.75h1.873z"/>
        <path fill="#000" d="M31.054 52.565H29.18V46.75h1.873zM34.09 34.856v.012a.604.604 0 0 0 .052.093l.52.762 1.353.137.015-.537c-.422-.033-1.383-.149-1.94-.467z" opacity=".1"/>
        <path fill="#F86D70" d="M34.143 34.96s.07 3.055-.694 3.472c-.764.417-1.06 2.588-1.06 2.588s2.314 1.523 2.83 2.193c.516.67 1.7 2.267 1.456 2.649-.243.381.591 2.118.591 2.118s-1.527 3.125-1.18 4.306.381 4.305.381 4.305h.66s-.208-2.57-.208-3.611c0-1.043.693-4.758.693-4.758s.313-3.645 0-3.749c-.313-.103-2.15-1.562-2.29-2.223-.139-.66.972-6.811.972-6.811s-1.422-.062-2.15-.478z"/>
        <path fill="#000" d="M29.145 46.21c.064.425.218.832.454 1.19l1.282-.217s3.852-.87 4.647-.94a4.963 4.963 0 0 0 1.394-.398 6.153 6.153 0 0 0-1.722-2.827l-.49-.453a8.188 8.188 0 0 0-2.463-1.576c.057.047 4.098 3.5 3.213 4.176-.885.677-3.268-.97-3.268-.97l-2.709-2.33-.098-.085-.157.244c.08.033.158.07.233.112a3.988 3.988 0 0 1 1.906 2.37c.557 1.873-2.222 1.704-2.222 1.704z" opacity=".1"/>
        <path fill="#444053" d="M28.312 54.89s2.568 1.424 3.191.626c.137-.176.424-.252.782-.272-.059-.18-.087-.3-.087-.3s-1.913-.706-3.694-.537a270.8 270.8 0 0 0-.192.484z"/>
        <path fill="#E8E8F0" d="M29.494 41.783L32.3 44.2s2.373 1.653 3.268.97c.894-.682-3.215-4.177-3.215-4.177a8.304 8.304 0 0 1 2.463 1.572l.489.453c1.285 1.192 1.575 1.192 1.619 2.944.01.432-.137 1.052-.25 1.164-.416.408-.707 3.377-.644 3.724.064.348-.776 3.346-.503 4.18.272.833-3.404-.417-4.026.383-.622.8-3.19-.626-3.19-.626s1.423-3.647 1.77-3.89c.347-.242.764-2.117 0-2.985-.764-.868-.832-1.702-.832-1.702s2.778.172 2.22-1.701a3.93 3.93 0 0 0-2.134-2.482l.158-.244z"/>
        <path fill="#000" d="M33.24 47.93s-1.076 2.03-2.47 2.558a1.992 1.992 0 0 1-.135.045c-1.454.443 2.714-1.974 2.606-2.603z" opacity=".1"/>
        <path fill="#FBBEBE" d="M18.18 29.96s.52 1.32.937 1.77c.417.451 3.504 4.966 3.504 4.966l.262.545.224.465 1.979-.209.136-.798-.077-.093c-.198-.238-.74-.879-1.104-1.158-.45-.346-1.353-1.491-1.353-1.491s-2.81-2.918-3.018-3.717c-.209-.798-3.02-5.585-3.643-4.757-.624.828 2.153 4.477 2.153 4.477z"/>
        <g fill="#000" opacity=".1">
            <path d="M23.92 51.433a1.55 1.55 0 0 0-.698.101c-.49.239-.583.883-.855 1.356-.319.553-.926.895-1.55 1.021-.125.024-.25.042-.377.052.398.039.8.021 1.193-.052.625-.126 1.232-.468 1.55-1.021.273-.473.366-1.117.856-1.356.128-.058.267-.09.408-.095l-.527-.006zM28.756 40.983c0-1.083.704-2.016 1.284-2.93.58-.914 1.067-2.068.608-3.049-.392-.838-2.755-1.962-4.12-1.74 1.336.173 2.982 1.054 3.304 1.74.458.981-.03 2.135-.609 3.049-.58.914-1.287 1.847-1.284 2.93 0 1.398-.094 2.452-.478 3.802-.11.389.953.976.79 1.344-.553 1.226-.294 2.64-.383 3.98-.002.262-.065.52-.186.752-.272.448-.83.564-1.374.589h.475c.635 0 1.388-.05 1.716-.593.12-.232.184-.49.186-.752.089-1.34-.17-2.756.383-3.98.166-.368-.9-.954-.79-1.344.384-1.34.48-2.4.478-3.798z"/>
        </g>
        <path fill="#000" d="M22.883 37.238l.224.465 1.979-.209.136-.798-.077-.093c-.21.104-1.791.866-2.262.635z" opacity=".1"/>
        <path fill="#000" d="M30.187 42.46s-.486-.763-.764-.556c-.278.207-.385-.625-.544-.486-.16.139-.624.526-.817-.015-.151-.43-1.796-3.154-2.463-4.25-.172-.283-.28-.457-.28-.457s-1.873.937-2.323.625v.66l.381.035 2.042 3.815s.643 1.023.6 1.38c-.044.356.823 1.919.962 2.023.139.103 1.633 1.84 1.633 1.84s.764 3.75.104 4.793c-.66 1.042-1.804 1.805-1.804 1.805s-.344 1.006-.294 1.111c.05.105-.4.556-.192.695.208.139.486 1.11.486 1.11s.972-1.562 1.498-1.805c.525-.242 1.198-3.438 1.198-3.438s.192-1.883.207-3.098c.015-1.215-.047-5.787.37-5.787z" opacity=".1"/>
        <path fill="#F86D70" d="M30.082 42.46s-.485-.763-.762-.556c-.278.207-.387-.625-.545-.486-.158.139-.622.526-.817-.015-.152-.43-1.797-3.154-2.463-4.25l-.279-.457s-1.873.937-2.325.625v.66l.383.035 2.042 3.815s.644 1.023.599 1.38c-.045.356.817 1.919.962 2.023.146.103 1.634 1.84 1.634 1.84s.764 3.75.105 4.793a6.385 6.385 0 0 1-1.257 1.392 2.43 2.43 0 0 0-.817 1.31.518.518 0 0 0-.024.218c.05.104-.4.556-.192.695.208.139.489 1.114.489 1.114s.972-1.562 1.497-1.805c.526-.242 1.2-3.438 1.2-3.438s.19-1.883.207-3.098c.016-1.215-.045-5.795.363-5.795z"/>
        <path fill="#000" d="M25.328 58.26s1.458.272 2.042.693c.584.421-2.22-.66-2.22-.66l.178-.033zM28.834 61.957s1.52 1.268 1.248 2.414c-.272 1.146-.975 4.028-.975 4.028l-.273-6.442zM15.534 59.519s-2.143.234-2.004.512c.139.278 2.004-.256 2.004-.256v-.256zM31.988 70.065s.136.173-.659 0-.208-.707-.208-.707l.867.707zM31.716 72.572s-1.09.421-1.673 0c-.585-.421 1.673 0 1.673 0zM29.475 81.837s-.19-.209-1.145.173c-.954.381-1.336.399-1.613.272-.278-.126 2.758-.445 2.758-.445zM30.534 59.223l-1.353 1.884s.728-1.65 1.353-1.884zM27.904 41.904s-.059.625-.931.87c-.873.243-1.04.44-1.04.44M25.636 37.372s-1.152.817-2.354.644M26.512 54.873s.337.211 1.144-.712M34.897 45.08c.033-.17-.084-.326-.194-.458l-.226-.273a1.049 1.049 0 0 0-.149-.152c-.136-.105-.31-.136-.452-.23" opacity=".1"/>
        <path fill="#FFC107" d="M105.57.015S94.106-.677 95.454 7.36c0 0-.272 1.421 1.019 2.066 0 0 .02-.596 1.176-.393.411.069.83.089 1.246.06a2.594 2.594 0 0 0 1.522-.63s3.222-1.331 4.475-6.6c0 0 .927-1.15.89-1.446l-1.934.827s.661 1.396.136 2.557c0 0-.063-2.507-.435-2.452-.075.012-1.004.483-1.004.483s1.136 2.432.279 4.2c0 0 .325-2.997-.635-4.024l-1.361.796s1.329 2.512.427 4.562c0 0 .232-3.144-.714-4.369l-1.234.963s1.249 2.477.488 4.177c0 0-.1-3.66-.755-3.937 0 0-1.08.954-1.244 1.343 0 0 .855 1.798.324 2.747 0 0-.325-2.439-.592-2.453 0 0-1.076 1.616-1.187 2.725 0 0 .046-1.647.927-2.877 0 0-1.04.178-1.648.853 0 0 .168-1.142 1.913-1.241 0 0 .89-1.226 1.126-1.301 0 0-1.734-.145-2.787.321 0 0 .926-1.077 3.106-.587l1.218-.996s-2.284-.312-3.254.033c0 0 1.115-.954 3.582-.259l1.326-.793s-1.948-.42-3.108-.272c0 0 1.225-.661 3.498.056l.953-.427s-1.427-.28-1.845-.325c-.418-.045-.44-.16-.44-.16a4.946 4.946 0 0 1 2.68.298s2.016-.743 1.98-.87zM91.432 2.06s-5.173-.314-4.567 3.318c0 0-.122.643.458.935 0 0 .01-.273.533-.179.185.032.374.04.562.028.254-.018.496-.118.688-.285 0 0 1.456-.6 2.023-2.982 0 0 .418-.52.401-.654l-.874.373s.3.632.064 1.157c0 0-.028-1.134-.196-1.106-.034 0-.455.218-.455.218s.515 1.099.127 1.899c0 0 .147-1.354-.287-1.819l-.616.36s.602 1.134.194 2.06c0 0 .105-1.42-.323-1.973l-.557.44s.564 1.12.22 1.887c0 0-.044-1.654-.34-1.778 0 0-.488.43-.563.607 0 0 .386.818.147 1.24 0 0-.147-1.102-.272-1.106 0 0-.485.73-.537 1.226.024-.463.169-.911.42-1.301-.281.053-.54.187-.745.385 0 0 .076-.514.864-.56 0 0 .409-.554.51-.588 0 0-.785-.065-1.26.146 0 0 .418-.488 1.404-.273l.544-.45s-1.032-.135-1.47.016c0 0 .504-.43 1.619-.117l.599-.359s-.88-.19-1.405-.12c0 0 .554-.3 1.58.024l.43-.192s-.646-.128-.835-.148c-.19-.019-.199-.072-.199-.072a2.23 2.23 0 0 1 1.212.136s.919-.336.902-.393z" opacity=".52"/>
        <ellipse cx="111.93" cy="85.3" fill="#FFC107" rx="5.474" ry="1"/>
        <path fill="#FFC107" d="M114.194 83.785c.25-.204.432-.479.522-.789.068-.312-.066-.681-.365-.802-.335-.128-.693.105-.964.339-.271.234-.583.503-.937.452a1.43 1.43 0 0 0 .441-1.336.561.561 0 0 0-.122-.273c-.187-.198-.523-.114-.746.043-.708.498-.906 1.461-.91 2.326-.07-.312-.01-.637-.012-.953-.001-.316-.09-.681-.36-.849a1.076 1.076 0 0 0-.545-.128c-.318-.012-.673.02-.89.253-.272.29-.2.774.035 1.09.234.316.592.52.921.739.264.157.489.372.658.628.02.035.037.073.049.113h1.996a5.55 5.55 0 0 0 1.23-.853zM162.277 35.685a.204.204 0 1 0 0-.408.204.204 0 0 0 0 .408z"/>
    </g>
</svg>
