<svg xmlns="http://www.w3.org/2000/svg" width="202" height="301" viewBox="0 0 202 301">
    <g fill="none" fill-rule="evenodd">
        <path fill="#713BCB" d="M102.1 58.761c-.45.745-36.512 31.94-36.512 31.94L21.47 81.878l-6.268 5.072 42.643 25.608 54.705-39.3-10.45-14.497z"/>
        <path fill="#FFCDA8" d="M140.695 37.735s-17.487 5.703-17.086 3.36c.553-3.24-13.33-38.446-25.682-33.567-7.609 3.005-6.55 11.578-5.22 16.261 1.33 4.684 6.959 14.05 6.959 14.05l7.264-15.17s4.912 18.221 2.047 22.905c-2.865 4.682-4.808 8.856-4.808 8.856s3.053 6.109 12.014 1.833c8.96-4.276 24.512-18.528 24.512-18.528"/>
        <path fill="#8F68D0" d="M140.696 37.506s3.761-1.014 6.377 5.206c2.617 6.219 28.492 58.722 28.492 58.722s-39.394 13.45-39.394 13.017c0-.433-16.282-20.105-16.282-20.105l-25.721 23.587a12.577 12.577 0 0 1-13.173 2.393L18.323 95.182l3.148-6.62 63.75 9.827c5.121.787 10.203-1.643 12.781-6.112l9.82-17.023-4.934-6.134a9.971 9.971 0 0 1-.769-11.406l2.506-4.156s5.522 5.208 12.5 2.46C124.105 53.27 122.973 42 122.973 42l17.724-4.495z"/>
        <path fill="#FFCDA8" d="M19.352 84.897s.742-4.86-1.135-7.273c-1.88-2.413-3.98-3.501-3.98-3.501l2.63 6.07L6.4 72.798s2.347 7.553 4.46 10.122c2.113 2.571 4.696 4.749 4.696 4.749l3.796-2.77z"/>
        <path fill="#FFCDA8" d="M20.504 89.85s-4.372-2.725-7.556-2.725-3.496.544-3.496.544l5.526 1.401S.92 88.76.374 88.487c-.548-.272 5.087 4.868 8.921 4.79 3.835-.078 11.209-1.871 11.209-1.871V89.85z"/>
        <path fill="#221A33" d="M95.618 8.406s3.217 7.516 6.495 7.264c3.28-.25 4.69-1.82 4.69-1.82s3.21.008 2.54 3.424c-.669 3.415-2.057 4.17-2.057 4.17l9.837 9.787 1.768-6.776s4.414-19.075-4.164-22.588c-8.577-3.516-19.678 1.407-19.109 6.539"/>
        <path fill="#221A33" d="M118.133 25.334l3.911 7.088s4.793-9.976 27.119-7.088c22.325 2.887 18.667 26.494 13.244 32.449-5.424 5.952-4.768 5.25-4.768 5.25l-11.378-23.267s-2.017-4.519-7.441-3.012c-5.424 1.505-15.786 4.633-15.786 4.633l-3.007-5.757-2.727-5.073.833-5.223z"/>
        <path fill="#40305F" d="M174.748 99.62l8.608 12.939s25.23 40.559 16.688 51.231c-8.543 10.673-49.267 10.318-62.578 11.582-13.31 1.267-15.694 2.497-15.694 2.497s9.138 8.406 4.172 36.003c-4.966 27.596-.795 61.198-1.39 61.79-.597.594-30.793-68.586-30.793-68.586s-7.946 7.117-19.865 33.997c-11.92 26.88-28.807 51.785-28.807 51.785l37.349-141.521-.544-4.134c-1.013-7.73 4.524-14.795 12.308-15.703 16.187-1.888 40.55-4.718 41.079-4.698.794.027.889-14.163.889-14.163l38.578-13.02z"/>
        <path fill="#E74B73" d="M91.768 19.438c-.138.163 3.438 10.28 3.438 10.28l-3.904 1.997.466-12.277zM174.748 99.62s-5.684 23.512-38.578 14.832l-5.072-6.455 43.65-8.378z"/>
        <path fill="#40305F" d="M103.315 228.861l21.362-6.237 3.672 51.416 2.448 1.067-1.989 22.058zM82.437 151.338l11.323 55.737-30.186 60.398 3.2 7.364-26.593 25.367z"/>
    </g>
</svg>
