<svg xmlns="http://www.w3.org/2000/svg" width="80" height="80" viewBox="0 0 80 80">
    <g fill="none" fill-rule="evenodd" transform="translate(1 1)">
        <circle cx="39" cy="39" r="39" fill="#FFF" stroke="#71828A" stroke-opacity=".2"/>
        <g fill="#0074E4">
            <path d="M38.974 40.263a1.288 1.288 0 1 1 0-2.577c.236 0 .455.068.645.178V19.66c-.215-.007-.429-.016-.645-.016-10.676 0-19.33 8.654-19.33 19.33 0 10.676 8.654 19.33 19.33 19.33.216 0 .43-.009.645-.016V40.084a1.28 1.28 0 0 1-.645.179z" opacity=".1"/>
            <path d="M57.62 40.221l1.285.084c.029-.439.043-.887.043-1.33H57.66c0 .418-.014.834-.04 1.246zM24.947 51.32l-.967.853a20.4 20.4 0 0 0 1.847 1.84l.849-.97a18.957 18.957 0 0 1-1.73-1.723zM27.9 55.6c.722.482 1.483.921 2.26 1.304l.57-1.157a18.604 18.604 0 0 1-2.115-1.22L27.9 55.6zM32.574 57.9c.821.278 1.67.505 2.524.673l.249-1.265a18.436 18.436 0 0 1-2.36-.628l-.413 1.22zM54.504 49.369l1.07.717c.484-.721.925-1.482 1.31-2.26l-1.155-.57c-.36.726-.772 1.437-1.225 2.113zM20.654 42.671l-1.263.254c.17.85.399 1.697.68 2.519l1.22-.416a18.64 18.64 0 0 1-.637-2.357zM21.076 47.85c.385.776.827 1.535 1.311 2.255l1.07-.718a18.764 18.764 0 0 1-1.227-2.11l-1.154.574zM37.768 57.621l-.082 1.287a20.309 20.309 0 0 0 2.608-.002l-.085-1.286c-.806.053-1.634.053-2.44.001zM56.666 45.001l1.22.416c.28-.82.508-1.67.678-2.523l-1.264-.252a18.548 18.548 0 0 1-.634 2.36zM42.63 57.302l.251 1.264a19.94 19.94 0 0 0 2.522-.675l-.415-1.221c-.768.262-1.561.474-2.358.632zM51.289 53.029l.849.97a20.1 20.1 0 0 0 1.845-1.844l-.968-.85c-.536.61-1.117 1.19-1.726 1.724zM47.24 55.738l.57 1.155a20.041 20.041 0 0 0 2.258-1.306l-.716-1.071c-.676.452-1.387.863-2.112 1.222zM20.289 38.974c0-10.303 8.382-18.685 18.685-18.685 3.315 0 6.527.87 9.364 2.518l-1.871.749.478 1.197 3.627-1.45v-3.659h-1.288v2.234A19.87 19.87 0 0 0 38.974 19C27.961 19 19 27.96 19 38.974c0 .444.015.892.043 1.33l1.286-.084c-.027-.411-.04-.827-.04-1.246z"/>
            <path fill-rule="nonzero" d="M53.15 34.464c0-.371-.11-.715-.293-1.01l3.53-5.547c.198.069.407.114.628.114a1.935 1.935 0 0 0 1.933-1.933 1.935 1.935 0 0 0-1.932-1.933 1.935 1.935 0 0 0-1.934 1.933c0 .37.11.715.293 1.01l-3.53 5.546a1.917 1.917 0 0 0-.629-.113c-.508 0-.967.201-1.313.523l-2.58-1.548c.013-.087.028-.173.028-.264a1.935 1.935 0 0 0-1.934-1.933 1.935 1.935 0 0 0-1.933 1.933c0 .335.094.645.244.92l-4.02 5.026c-.029-.012-.06-.018-.09-.028V22.866h-.644c-8.882 0-16.108 7.226-16.108 16.108 0 8.882 7.226 16.108 16.108 16.108h.645V40.79a1.93 1.93 0 0 0 1.288-1.815 1.91 1.91 0 0 0-.243-.92l4.02-5.025a1.921 1.921 0 0 0 2.046-.376l2.58 1.547c-.012.087-.027.174-.027.264 0 1.065.868 1.933 1.933 1.933a1.935 1.935 0 0 0 1.934-1.933zm3.866-9.02a.645.645 0 0 1 0 1.288.645.645 0 0 1 0-1.289zM38.33 31.858c-1.94-.098-3.697-.615-5.172-1.267 1.633-3.193 3.906-5.071 5.172-5.934v7.2zm-6.3-1.816a18.212 18.212 0 0 1-3.028-2.017 14.777 14.777 0 0 1 7.643-3.685 18.134 18.134 0 0 0-4.615 5.702zm-.553 1.182c-.84 1.968-1.428 4.324-1.508 7.105H24.17a14.762 14.762 0 0 1 3.91-9.388 18.89 18.89 0 0 0 3.396 2.283zm-1.509 8.394c.08 2.781.669 5.137 1.509 7.105a18.924 18.924 0 0 0-3.396 2.282 14.755 14.755 0 0 1-3.91-9.387h5.797zm2.062 8.286a18.133 18.133 0 0 0 4.615 5.702 14.772 14.772 0 0 1-7.643-3.685 18.169 18.169 0 0 1 3.028-2.017zm1.154-.559c1.469-.648 3.216-1.159 5.146-1.256v7.188c-1.255-.874-3.514-2.767-5.146-5.932zM38.33 44.8c-2.156.098-4.088.655-5.697 1.364-.762-1.813-1.297-3.983-1.375-6.545h5.902c.195.546.625.976 1.17 1.17V44.8zm-1.17-6.47h-5.904c.077-2.572.604-4.744 1.356-6.554 1.614.713 3.553 1.275 5.718 1.372v4.012a1.931 1.931 0 0 0-1.17 1.17zm1.814 1.289a.645.645 0 0 1 0-1.29.645.645 0 0 1 0 1.29zm6.444-7.732a.645.645 0 0 1 0-1.29.645.645 0 0 1 0 1.29zm5.798 3.221a.645.645 0 0 1 0-1.288.645.645 0 0 1 0 1.288z"/>
        </g>
    </g>
</svg>
