<svg xmlns="http://www.w3.org/2000/svg" width="80" height="80" viewBox="0 0 80 80">
    <g fill="none" fill-rule="evenodd" transform="translate(1 1)">
        <circle cx="39" cy="39" r="39" fill="#FFF" stroke="#71828A" stroke-opacity=".2"/>
        <g fill="#0074E4">
            <path d="M43.919 50.548H33.287v-.7c0-2.077-.746-4.097-2.158-5.884a9.657 9.657 0 0 1-2.005-7.34c.586-4.372 4.238-7.904 8.681-8.4 2.823-.314 5.657.57 7.761 2.425a9.751 9.751 0 0 1 3.314 7.306 9.591 9.591 0 0 1-2.158 6.09c-1.35 1.672-2.094 3.719-2.094 5.76v.7l-.71.043z" opacity=".2"/>
            <path fill-rule="nonzero" d="M60.915 28.722l-.823-4.06h-4.124v1.399h2.069l-2.56 3.158c-.139-.278-.272-.558-.424-.828l-1.238.683c.25.44.474.895.682 1.355l-.758.935-4.27-3.513-5.18 6.82a2.839 2.839 0 0 0-1.08-.214c-1.563 0-2.834 1.255-2.834 2.798v1.4H37.54v-1.4c0-1.543-1.272-2.798-2.835-2.798-.382 0-.746.077-1.079.212l-5.18-6.819-4.27 3.513-.757-.933c.216-.478.447-.949.707-1.403l-1.235-.686c-.163.286-.306.583-.454.878l-2.559-3.158h2.07v-1.4h-4.125L17 28.723l1.39.275.41-2.026 2.992 3.692c-.05.125-.108.246-.155.372l.644.231 1.691 2.087 4.235-3.484 4.293 5.65a2.743 2.743 0 0 0-.63 1.736c0 1.544 1.271 2.799 2.835 2.799h1.417v9.095h-2.835c-1.172 0-2.126.942-2.126 2.099 0 .45.147.866.393 1.208l-.58 1.194c.294.14.597.26.897.382l-.001.014c0 .745.398 1.398.993 1.77a2.054 2.054 0 0 0-.285 1.029c0 1.157.954 2.099 2.127 2.099h8.505c1.172 0 2.126-.942 2.126-2.1 0-.375-.108-.723-.284-1.028a2.088 2.088 0 0 0 .993-1.77l-.001-.014c.3-.123.602-.242.897-.382l-.58-1.194c.245-.342.393-.758.393-1.208 0-1.157-.954-2.099-2.127-2.099h-2.835v-9.095h1.418c1.564 0 2.835-1.255 2.835-2.799a2.75 2.75 0 0 0-.63-1.737l4.293-5.65 4.235 3.484 1.622-2.001.734-.261c-.052-.144-.12-.284-.176-.427l2.992-3.692.41 2.026 1.39-.275zm-26.21 9.932a1.41 1.41 0 0 1-1.418-1.399c0-.195.042-.38.115-.55l.736.97 1.134-.839-.732-.963c.055-.007.108-.017.165-.017a1.41 1.41 0 0 1 1.417 1.4v1.398h-1.417zm9.923 15.392c0 .386-.318.7-.71.7H33.996a.705.705 0 0 1-.708-.7c0-.386.318-.7.709-.7h9.923c.391 0 .709.314.709.7zm-1.418 3.498h-8.505a.705.705 0 0 1-.709-.7c0-.386.318-.7.709-.7h8.505c.391 0 .709.314.709.7 0 .387-.318.7-.709.7zm2.126-6.296c0 .386-.317.7-.709.7h-11.34a.705.705 0 0 1-.709-.7c0-.387.318-.7.71-.7h11.34c.39 0 .708.313.708.7zm-7.796-2.1v-9.094h2.835v9.095H37.54zm7.088-11.893c0 .772-.636 1.4-1.418 1.4h-1.417v-1.4c0-.772.635-1.4 1.417-1.4.057 0 .11.01.165.018l-.732.962 1.134.839.736-.969c.073.17.115.355.115.55z"/>
            <path d="M32.235 21.826l-.56-1.284c-.92.39-1.812.859-2.654 1.391l.765 1.178c.777-.491 1.6-.924 2.449-1.285zM37.598 20.517l-.11-1.396a18.575 18.575 0 0 0-2.967.475l.343 1.358c.89-.218 1.81-.365 2.734-.437zM27.582 24.77l-.949-1.039a18.496 18.496 0 0 0-2.06 2.154l1.106.876a16.96 16.96 0 0 1 1.903-1.99zM22.112 39.605l-1.404.194c.14.98.361 1.954.66 2.894l1.352-.418a16.578 16.578 0 0 1-.608-2.67zM48.942 21.965a18.39 18.39 0 0 0-2.647-1.4l-.565 1.284c.844.361 1.666.796 2.442 1.291l.77-1.175zM43.451 19.61a18.626 18.626 0 0 0-2.963-.484l-.116 1.395c.92.074 1.84.224 2.734.445l.345-1.357zM52.269 26.8l1.108-.871a18.493 18.493 0 0 0-2.054-2.161l-.952 1.036a16.95 16.95 0 0 1 1.898 1.997zM55.178 42.327l1.351.423c.302-.941.527-1.913.67-2.891l-1.404-.199c-.131.902-.339 1.8-.617 2.667zM55.688 34.204c.165.895.259 1.811.276 2.724l1.418-.027c-.02-.987-.12-1.98-.3-2.948l-1.394.251zM52.672 47.187l1.142.83a18.306 18.306 0 0 0 1.578-2.524l-1.263-.635a16.96 16.96 0 0 1-1.457 2.329zM48.719 51.003l.813 1.145a18.376 18.376 0 0 0 2.311-1.895l-.992-1a16.9 16.9 0 0 1-2.132 1.75zM22.499 45.442c.451.881.98 1.732 1.569 2.529l1.144-.826a16.811 16.811 0 0 1-1.448-2.335l-1.265.632zM22.237 34.15l-1.394-.256a18.254 18.254 0 0 0-.31 2.948l1.418.032c.021-.916.117-1.833.286-2.723zM26.03 50.214c.71.689 1.484 1.329 2.303 1.902l.82-1.143a17.116 17.116 0 0 1-2.128-1.756l-.995.997z"/>
        </g>
    </g>
</svg>
