<svg xmlns="http://www.w3.org/2000/svg" width="80" height="80" viewBox="0 0 80 80">
    <g fill="none" fill-rule="evenodd" transform="translate(1 1)">
        <circle cx="39" cy="39" r="39" fill="#FFF" stroke="#71828A" stroke-opacity=".2"/>
        <g fill="#0074E4" transform="translate(19 19)">
            <circle cx="19.974" cy="19.974" r="14.82" opacity=".1"/>
            <path fill-rule="nonzero" d="M39.948 19.974C39.948 8.961 30.988 0 19.974 0c-3.421 0-6.643.866-9.461 2.388C6.172.225 3.037-.084 1.445 1.51-.29 3.245.376 6.652 2.348 10.59A19.854 19.854 0 0 0 0 19.974C0 30.988 8.96 39.95 19.974 39.95c3.387 0 6.578-.85 9.375-2.344 2.33 1.163 4.53 1.902 6.294 1.902 1.14 0 2.1-.306 2.795-1.003 1.594-1.593 1.286-4.727-.877-9.068a19.853 19.853 0 0 0 2.387-9.462zM2.356 2.421c1.054-1.054 3.515-.769 6.828.758a20.118 20.118 0 0 0-6.052 6.078C1.586 5.88 1.347 3.43 2.356 2.421zM19.974 38.66C9.671 38.66 1.29 30.278 1.29 19.974c0-2.857.647-5.566 1.798-7.99 1.731 3.098 4.154 6.429 6.782 9.483l-2.263.453.253 1.264 3.564-.713 1.418-3.546-1.196-.479-.847 2.116C7.626 16.877 5.3 13.48 3.806 10.626 7.043 5.05 13.076 1.29 19.974 1.29c10.304 0 18.686 8.382 18.686 18.685 0 6.9-3.76 12.932-9.337 16.168-2.08-1.092-4.394-2.584-6.81-4.436l-.785 1.022c1.99 1.527 4.134 2.974 6.224 4.14a18.575 18.575 0 0 1-7.978 1.792zm17.553-1.067c-1.08 1.08-3.584.73-6.84-.773a20.133 20.133 0 0 0 6.083-6.055c1.526 3.312 1.811 5.774.757 6.828z"/>
            <path d="M26.418 24.485a5.16 5.16 0 0 0-5.155-5.155h-2.577a3.87 3.87 0 0 1-3.866-3.866 3.87 3.87 0 0 1 3.866-3.866h2.577a3.87 3.87 0 0 1 3.866 3.866v.644h1.289v-.644a5.16 5.16 0 0 0-5.155-5.155h-.644V7.732H19.33v2.577h-.644a5.16 5.16 0 0 0-5.155 5.155 5.16 5.16 0 0 0 5.155 5.155h2.577a3.87 3.87 0 0 1 3.866 3.866 3.87 3.87 0 0 1-3.866 3.866h-2.577a3.87 3.87 0 0 1-3.866-3.866v-.645H13.53v.645a5.16 5.16 0 0 0 5.155 5.154h.644v2.577h1.289V29.64h.644a5.16 5.16 0 0 0 5.155-5.154z"/>
        </g>
    </g>
</svg>
