<svg xmlns="http://www.w3.org/2000/svg" width="152" height="348" viewBox="0 0 152 348">
    <g fill="none" fill-rule="evenodd">
        <path fill="#FFCDA8" d="M75.575 35.126l6.896-7.039s-6.146-5.84-5.996-15.277c.15-9.437 14.238-10.184 20.234-6.889 5.997 3.294 12.739 13.03 12.739 13.03h-5.095l1.198 12.13-8.842-1.498-4.197 14.978-16.937-9.435z"/>
        <path fill="#E74B73" d="M100.755 8.915l3.598 10.036h5.585s-6.026-7.577-9.183-10.036"/>
        <path fill="#4F4DB8" d="M95.792 5.48l3.348 12.644s-1.553-5.072-5.072-4.191c-3.52.88 1.036 8.742 1.036 8.742l-16.836-.977s-3.48-3.989-2.694-11.747c.79-7.758 14.248-10.346 19.84-8.898 5.59 1.45 5.34 1.967 5.34 1.967l-4.962 2.46z"/>
        <path fill="#0095F9" d="M92.512 44.561L74.083 33.058l-7.126 9.877S37.53 37.44 31.783 38.81C26.033 40.18-1.784 79.461.517 82.45c2.298 2.988 23.449 8.5 23.449 8.5l-6.898 32.393 68.971 20.445V107.95s19.31 44.108 25.288 46.867c5.978 2.755 10.806-4.826 13.334-13.326 2.528-8.5 17.703-56.974 17.703-56.974l-7.587-4.593-17.7 25.96s-2.531-24.122-4.601-27.11c-2.069-2.986-24.368-21.365-24.368-21.365l4.404-12.847z"/>
        <path fill="#FFCDA8" d="M136.744 81.114l2.136-3.38s-3.234-6.166.36-6.883c3.594-.72 6.112-.779 6.112-.779s-4.833 1.436-4.306 3.113c.531 1.677 8.737-1.736 9.636-2.036.9-.298.18 7.664-1.795 8.623-1.978.957-6.17-.96-6.17-.96l-1.992 4.713-3.98-2.411z"/>
        <path fill="#40305F" d="M20.234 124.28L.382 330.269l30.51 4.762 14.97-164.621 6.808 3.32 6.807 161.301s22.652 3.401 41.28 0l-19.71-192.723-60.813-18.028z"/>
        <path fill="#40305F" d="M86.353 336.468l11.034 10.704-22.685-5.353-3.065-2v3.37l-5.518-1.37v-6.026zM20.356 333.387l16.027 12.253-22.665-9.846-2.778 2.8-5.824-2.05v-6.833z"/>
    </g>
</svg>
