<svg xmlns="http://www.w3.org/2000/svg" width="20" height="20" viewBox="0 0 20 20">
    <path fill="#71828A" fill-rule="nonzero" d="M9.929 19.858C4.445 19.858 0 15.412 0 9.928 0 4.446 4.445 0 9.93 0s9.929 4.445 9.929 9.929c0 5.483-4.445 9.929-9.929 9.929zm6.082-12.722a4.735 4.735 0 0 1-1.363.373 2.38 2.38 0 0 0 1.043-1.313c-.458.272-.966.47-1.507.576a2.374 2.374 0 0 0-4.044 2.165 6.737 6.737 0 0 1-4.892-2.48 2.373 2.373 0 0 0 .734 3.169 2.357 2.357 0 0 1-1.074-.298v.03c0 1.15.818 2.11 1.903 2.327a2.365 2.365 0 0 1-1.071.041 2.376 2.376 0 0 0 2.217 1.649 4.762 4.762 0 0 1-3.514.982 6.713 6.713 0 0 0 3.638 1.067c4.365 0 6.752-3.617 6.752-6.753 0-.103-.002-.206-.007-.307a4.813 4.813 0 0 0 1.185-1.228z"/>
</svg>
