<svg xmlns="http://www.w3.org/2000/svg" xmlns:xlink="http://www.w3.org/1999/xlink" width="16" height="15" viewBox="0 0 16 15">
    <defs>
        <path id="a" d="M0 0h30v30H0z"/>
    </defs>
    <g fill="none" fill-rule="evenodd" transform="translate(-7 -8)">
        <mask id="b" fill="#fff">
            <use xlink:href="#a"/>
        </mask>
        <path fill="#FFF" fill-rule="nonzero" d="M23 12.542a4.54 4.54 0 0 1-1.33 3.212l-6.176 6.175a.699.699 0 0 1-.988 0L8.33 15.754a4.542 4.542 0 0 1 6.423-6.423l.247.246.246-.246A4.54 4.54 0 0 1 23 12.542zm-3.06 2.964l.742-.74a3.144 3.144 0 1 0-4.448-4.447l-.74.74a.699.699 0 0 1-.988 0l-.74-.74a3.145 3.145 0 0 0-4.448 4.447L15 20.447l4.94-4.94z" mask="url(#b)"/>
    </g>
</svg>
